<svg width="85" height="68" viewBox="0 0 85 68" fill="none" xmlns="http://www.w3.org/2000/svg">
<g clip-path="url(#clip0)">
<path d="M8.26405 53.3672H7.67358V44.1559H8.09228C8.96205 44.0873 9.774 43.6934 10.3662 43.0527C10.9584 42.4119 11.2873 41.5715 11.2873 40.699C11.2873 39.8266 10.9584 38.9862 10.3662 38.3454C9.774 37.7047 8.96205 37.3107 8.09228 37.2421C7.95292 37.2315 7.81295 37.2315 7.67358 37.2421V28.2456H8.26405C15.8971 28.2349 22.0809 32.8083 22.0809 40.7957C22.0809 48.783 15.8971 53.3672 8.26405 53.3672Z" fill="#040028"/>
<path d="M63.1235 2.54425C63.1235 2.44763 63.1235 2.34027 63.1235 2.24365H67.7184C67.7131 2.31512 67.7131 2.3869 67.7184 2.45837C67.7184 2.91678 67.9005 3.35642 68.2247 3.68057C68.5488 4.00471 68.9885 4.18682 69.4469 4.18682C69.9053 4.18682 70.3449 4.00471 70.6691 3.68057C70.9932 3.35642 71.1753 2.91678 71.1753 2.45837C71.1806 2.38689 71.1806 2.31513 71.1753 2.24365H75.7058C75.7058 2.34027 75.7058 2.44763 75.7058 2.54425C75.7058 6.35543 73.4191 9.45805 69.4254 9.45805C65.4317 9.45805 63.1235 6.35543 63.1235 2.54425Z" fill="#040028"/>
<path d="M43.3268 68H6.91124C5.24643 68.0029 3.64837 67.3458 2.46716 66.1726C1.28594 64.9994 0.617895 63.4059 0.609375 61.7411L0.609375 6.25896C0.61219 5.4342 0.777426 4.61808 1.09565 3.85718C1.41387 3.09629 1.87885 2.40552 2.46403 1.82433C3.04921 1.24313 3.74314 0.782889 4.5062 0.469877C5.26925 0.156864 6.08648 -0.00278752 6.91124 3.6974e-05H43.3268C44.9934 -0.00567312 46.5943 0.650203 47.7778 1.82367C48.9613 2.99715 49.6308 4.59231 49.6394 6.25896V61.7411C49.628 63.4069 48.9576 65.0004 47.7747 66.1733C46.5918 67.3461 44.9926 68.0029 43.3268 68V68ZM6.91124 1.97541C5.77232 1.97541 4.68005 2.42784 3.87472 3.23317C3.06939 4.03851 2.61695 5.13078 2.61695 6.26969V61.7411C2.61695 62.88 3.06939 63.9723 3.87472 64.7776C4.68005 65.583 5.77232 66.0354 6.91124 66.0354H43.3268C44.4657 66.0354 45.558 65.583 46.3633 64.7776C47.1686 63.9723 47.6211 62.88 47.6211 61.7411V6.25896C47.6211 5.12004 47.1686 4.02777 46.3633 3.22244C45.558 2.4171 44.4657 1.96467 43.3268 1.96467L6.91124 1.97541Z" fill="#D3D2D1"/>
<path d="M42.7256 10.0701H25.9887C25.8005 10.0433 25.6301 9.94426 25.5139 9.7939C25.3976 9.64354 25.3445 9.45376 25.366 9.26489C25.3445 9.07603 25.3976 8.88625 25.5139 8.73589C25.6301 8.58553 25.8005 8.48645 25.9887 8.45972H42.7256C42.9138 8.48645 43.0842 8.58553 43.2004 8.73589C43.3167 8.88625 43.3698 9.07603 43.3483 9.26489C43.3698 9.45376 43.3167 9.64354 43.2004 9.7939C43.0842 9.94426 42.9138 10.0433 42.7256 10.0701V10.0701Z" fill="#040028"/>
<path d="M42.7256 16.898H25.9886C25.8067 16.8557 25.6445 16.7531 25.5284 16.6069C25.4123 16.4607 25.3491 16.2795 25.3491 16.0928C25.3491 15.9061 25.4123 15.7249 25.5284 15.5787C25.6445 15.4325 25.8067 15.3299 25.9886 15.2876H42.7256C42.9074 15.3299 43.0696 15.4325 43.1857 15.5787C43.3018 15.7249 43.365 15.9061 43.365 16.0928C43.365 16.2795 43.3018 16.4607 43.1857 16.6069C43.0696 16.7531 42.9074 16.8557 42.7256 16.898Z" fill="#040028"/>
<path d="M42.4787 24.3272H25.7525C25.5707 24.2849 25.4085 24.1823 25.2924 24.0361C25.1762 23.8899 25.113 23.7087 25.113 23.522C25.113 23.3353 25.1762 23.1541 25.2924 23.0079C25.4085 22.8617 25.5707 22.7591 25.7525 22.7168H42.4787C42.6606 22.7591 42.8228 22.8617 42.9389 23.0079C43.055 23.1541 43.1182 23.3353 43.1182 23.522C43.1182 23.7087 43.055 23.8899 42.9389 24.0361C42.8228 24.1823 42.6606 24.2849 42.4787 24.3272V24.3272Z" fill="#040028"/>
<path d="M42.4787 31.1336H25.7525C25.5707 31.0913 25.4085 30.9887 25.2924 30.8425C25.1762 30.6963 25.113 30.5151 25.113 30.3284C25.113 30.1417 25.1762 29.9605 25.2924 29.8143C25.4085 29.6681 25.5707 29.5655 25.7525 29.5232H42.4787C42.6606 29.5655 42.8228 29.6681 42.9389 29.8143C43.055 29.9605 43.1182 30.1417 43.1182 30.3284C43.1182 30.5151 43.055 30.6963 42.9389 30.8425C42.8228 30.9887 42.6606 31.0913 42.4787 31.1336V31.1336Z" fill="#040028"/>
<path d="M7.24414 12.679C7.24414 11.405 7.62192 10.1596 8.32972 9.10031C9.03751 8.04103 10.0435 7.21541 11.2205 6.72788C12.3976 6.24034 13.6927 6.11278 14.9422 6.36132C16.1917 6.60987 17.3395 7.22335 18.2403 8.1242C19.1412 9.02505 19.7547 10.1728 20.0032 11.4223C20.2518 12.6718 20.1242 13.967 19.6367 15.144C19.1491 16.321 18.3235 17.327 17.2642 18.0348C16.2049 18.7426 14.9596 19.1204 13.6856 19.1204C11.9772 19.1204 10.3388 18.4418 9.13079 17.2338C7.92279 16.0258 7.24414 14.3874 7.24414 12.679V12.679Z" fill="#F9D7C8"/>
<path d="M13.6426 19.5069C12.2922 19.5069 10.9721 19.1065 9.84923 18.3562C8.72638 17.6059 7.85123 16.5396 7.33444 15.2919C6.81766 14.0443 6.68244 12.6714 6.9459 11.3469C7.20935 10.0224 7.85965 8.80583 8.81455 7.85093C9.76945 6.89603 10.9861 6.24573 12.3106 5.98227C13.635 5.71882 15.0079 5.85403 16.2555 6.37082C17.5032 6.88761 18.5696 7.76276 19.3198 8.8856C20.0701 10.0084 20.4705 11.3286 20.4705 12.679C20.4705 14.4899 19.7512 16.2266 18.4707 17.5071C17.1902 18.7875 15.4535 19.5069 13.6426 19.5069ZM13.6426 6.70993C12.4616 6.70781 11.3065 7.05608 10.3235 7.71068C9.34045 8.36527 8.57371 9.29677 8.12028 10.3873C7.66685 11.4778 7.54711 12.6783 7.77621 13.8369C8.00531 14.9955 8.57296 16.0601 9.40732 16.8959C10.2417 17.7318 11.3052 18.3014 12.4634 18.5326C13.6216 18.7637 14.8223 18.6462 15.9136 18.1947C17.005 17.7432 17.9379 16.9782 18.5942 15.9963C19.2506 15.0145 19.6009 13.86 19.6009 12.679C19.5981 11.0986 18.9698 9.58364 17.8533 8.46514C16.7368 7.34665 15.223 6.71561 13.6426 6.70993V6.70993Z" fill="#F9D7C8"/>
<path d="M66.2153 14.2893C66.2153 13.6523 66.4042 13.0296 66.7581 12.5C67.112 11.9703 67.615 11.5575 68.2035 11.3138C68.792 11.07 69.4396 11.0062 70.0644 11.1305C70.6891 11.2548 71.263 11.5615 71.7134 12.0119C72.1639 12.4624 72.4706 13.0362 72.5949 13.661C72.7191 14.2857 72.6554 14.9333 72.4116 15.5218C72.1678 16.1103 71.755 16.6133 71.2254 16.9672C70.6957 17.3211 70.073 17.51 69.436 17.51C69.0131 17.51 68.5943 17.4267 68.2035 17.2649C67.8128 17.103 67.4577 16.8658 67.1587 16.5667C66.8596 16.2676 66.6223 15.9126 66.4605 15.5218C66.2986 15.1311 66.2153 14.7123 66.2153 14.2893V14.2893Z" fill="#F9D7C8"/>
<path d="M69.4144 17.7032C68.7392 17.7032 68.0792 17.5029 67.5178 17.1278C66.9563 16.7527 66.5188 16.2195 66.2604 15.5957C66.002 14.9718 65.9344 14.2854 66.0661 13.6232C66.1978 12.9609 66.523 12.3526 67.0004 11.8752C67.4779 11.3977 68.0862 11.0726 68.7484 10.9408C69.4107 10.8091 70.0971 10.8767 70.7209 11.1351C71.3447 11.3935 71.8779 11.8311 72.253 12.3925C72.6282 12.9539 72.8284 13.614 72.8284 14.2892C72.8284 15.1946 72.4687 16.063 71.8285 16.7032C71.1882 17.3435 70.3199 17.7032 69.4144 17.7032ZM69.4144 11.2617C68.8237 11.2596 68.2456 11.4328 67.7534 11.7595C67.2612 12.0861 66.877 12.5515 66.6495 13.0967C66.4219 13.6418 66.3613 14.2423 66.4752 14.8219C66.5892 15.4016 66.8726 15.9343 67.2895 16.3528C67.7065 16.7713 68.2383 17.0566 68.8175 17.1726C69.3967 17.2887 69.9974 17.2302 70.5433 17.0046C71.0893 16.779 71.5561 16.3965 71.8845 15.9055C72.2129 15.4145 72.3882 14.837 72.3882 14.2463C72.377 13.464 72.059 12.7175 71.5029 12.1673C70.9467 11.6172 70.1967 11.3074 69.4144 11.3047V11.2617Z" fill="#F9D7C8"/>
<path d="M80.365 29.5125H39.054C37.2752 29.5125 35.8333 30.9544 35.8333 32.7332V51.5529C35.8333 53.3316 37.2752 54.7736 39.054 54.7736H80.365C82.1437 54.7736 83.5857 53.3316 83.5857 51.5529V32.7332C83.5857 30.9544 82.1437 29.5125 80.365 29.5125Z" fill="white"/>
<path d="M80.365 55.5788H39.054C38.5235 55.5788 37.9983 55.4739 37.5084 55.2703C37.0186 55.0666 36.5738 54.7681 36.1997 54.392C35.8255 54.0159 35.5295 53.5696 35.3284 53.0786C35.1273 52.5877 35.0253 52.0619 35.0281 51.5314V32.7332C35.031 31.6663 35.456 30.6439 36.2104 29.8896C36.9648 29.1352 37.9872 28.7101 39.054 28.7073H80.365C81.4244 28.7214 82.4358 29.1514 83.181 29.9046C83.9261 30.6577 84.3453 31.6737 84.348 32.7332V51.5314C84.3537 52.5954 83.938 53.6185 83.1916 54.3769C82.4453 55.1353 81.429 55.5674 80.365 55.5788V55.5788ZM39.054 30.3176C38.4134 30.3176 37.799 30.5721 37.346 31.0251C36.893 31.4781 36.6385 32.0925 36.6385 32.7332V51.5314C36.6385 52.172 36.893 52.7864 37.346 53.2394C37.799 53.6924 38.4134 53.9469 39.054 53.9469H80.365C81.0057 53.9469 81.6201 53.6924 82.0731 53.2394C82.5261 52.7864 82.7806 52.172 82.7806 51.5314V32.7332C82.7806 32.0925 82.5261 31.4781 82.0731 31.0251C81.6201 30.5721 81.0057 30.3176 80.365 30.3176H39.054Z" fill="#D3D2D1"/>
<path d="M80.365 20.999H58.4534C57.3865 20.9962 56.3642 20.5711 55.6098 19.8167C54.8554 19.0623 54.4303 18.04 54.4275 16.9731V4.7881C54.4275 3.72037 54.8516 2.69636 55.6066 1.94136C56.3616 1.18636 57.3856 0.762207 58.4534 0.762207H80.365C81.4252 0.773517 82.4383 1.20266 83.184 1.95644C83.9297 2.71022 84.348 3.72776 84.3479 4.7881V16.9731C84.3452 18.0326 83.926 19.0486 83.1809 19.8017C82.4358 20.5549 81.4244 20.9849 80.365 20.999V20.999ZM58.4534 2.37256C57.8127 2.37256 57.1983 2.62706 56.7453 3.08006C56.2923 3.53306 56.0378 4.14746 56.0378 4.7881V16.9731C56.0378 17.2903 56.1003 17.6044 56.2217 17.8975C56.3431 18.1906 56.521 18.4569 56.7453 18.6812C56.9696 18.9055 57.2359 19.0834 57.529 19.2048C57.8221 19.3262 58.1362 19.3887 58.4534 19.3887H80.365C81.0056 19.3887 81.62 19.1342 82.073 18.6812C82.526 18.2282 82.7805 17.6138 82.7805 16.9731V4.7881C82.7805 4.14746 82.526 3.53306 82.073 3.08006C81.62 2.62706 81.0056 2.37256 80.365 2.37256H58.4534Z" fill="#D3D2D1"/>
<path d="M36.7136 30.5325L59.7095 42.1485L82.7161 30.5325" fill="white"/>
<path d="M59.7095 42.9428C59.5832 42.94 59.4588 42.9108 59.3445 42.8569L36.3486 31.2516L37.1109 29.813L59.7095 41.2465L82.3512 29.813L83.0812 31.2516L60.0746 42.8676C59.9597 42.9187 59.8352 42.9444 59.7095 42.9428V42.9428Z" fill="#D3D2D1"/>
</g>
<defs>
<clipPath id="clip0">
<rect width="83.7815" height="68" fill="white" transform="translate(0.609375)"/>
</clipPath>
</defs>
</svg>
