<svg width="59" height="68" viewBox="0 0 59 68" fill="none" xmlns="http://www.w3.org/2000/svg">
<g clip-path="url(#clip0)">
<path d="M36.8807 59.2232H5.44386C4.00006 59.2232 2.61539 58.6491 1.59447 57.6271C0.573548 56.605 0 55.2189 0 53.7736L0 5.44964C0 4.0043 0.573548 2.61817 1.59447 1.59616C2.61539 0.574156 4.00006 0 5.44386 0L36.8807 0C38.3245 0 39.7092 0.574156 40.7301 1.59616C41.751 2.61817 42.3246 4.0043 42.3246 5.44964V53.7736C42.3246 55.2189 41.751 56.605 40.7301 57.6271C39.7092 58.6491 38.3245 59.2232 36.8807 59.2232V59.2232ZM5.44386 1.72094C4.45693 1.72396 3.51128 2.11778 2.81341 2.81639C2.11554 3.515 1.72214 4.46166 1.71911 5.44964V53.7736C1.72214 54.7616 2.11554 55.7082 2.81341 56.4068C3.51128 57.1054 4.45693 57.4992 5.44386 57.5023H36.8807C37.8677 57.4992 38.8133 57.1054 39.5112 56.4068C40.2091 55.7082 40.6025 54.7616 40.6055 53.7736V5.44964C40.6025 4.46166 40.2091 3.515 39.5112 2.81639C38.8133 2.11778 37.8677 1.72396 36.8807 1.72094H5.44386Z" fill="#D3D2D1"/>
<path d="M53.5562 9.63721H22.0162C19.4843 9.63721 17.4319 11.6918 17.4319 14.2264V62.5503C17.4319 65.0848 19.4843 67.1395 22.0162 67.1395H53.5562C56.0881 67.1395 58.1405 65.0848 58.1405 62.5503V14.2264C58.1405 11.6918 56.0881 9.63721 53.5562 9.63721Z" fill="white"/>
<path d="M53.5564 68.0001H22.0164C20.5726 68.0001 19.1879 67.4259 18.167 66.4039C17.1461 65.3819 16.5725 63.9958 16.5725 62.5504V14.2265C16.5725 12.7812 17.1461 11.395 18.167 10.373C19.1879 9.35101 20.5726 8.77686 22.0164 8.77686H53.5564C55.0002 8.77686 56.3849 9.35101 57.4058 10.373C58.4267 11.395 59.0002 12.7812 59.0002 14.2265V62.5504C59.0002 63.9958 58.4267 65.3819 57.4058 66.4039C56.3849 67.4259 55.0002 68.0001 53.5564 68.0001V68.0001ZM22.0164 10.4978C21.0374 10.5128 20.1035 10.9119 19.4155 11.6093C18.7274 12.3066 18.3404 13.2464 18.3375 14.2265V62.5504C18.3405 63.5384 18.7339 64.4851 19.4318 65.1837C20.1296 65.8823 21.0753 66.2761 22.0622 66.2791H53.5564C54.047 66.2806 54.5332 66.1854 54.987 65.9988C55.4409 65.8123 55.8536 65.538 56.2016 65.1918C56.5496 64.8455 56.8261 64.4341 57.0153 63.9809C57.2044 63.5277 57.3026 63.0416 57.3041 62.5504V14.2265C57.301 13.2385 56.9076 12.2919 56.2098 11.5932C55.5119 10.8946 54.5662 10.5008 53.5793 10.4978H22.0164Z" fill="#D3D2D1"/>
<path d="M50.0491 32.7551H27.1276C26.8997 32.7551 26.681 32.6645 26.5198 32.5031C26.3586 32.3417 26.2681 32.1229 26.2681 31.8946C26.2681 31.6664 26.3586 31.4476 26.5198 31.2862C26.681 31.1248 26.8997 31.0342 27.1276 31.0342H50.0491C50.2771 31.0342 50.4957 31.1248 50.6569 31.2862C50.8181 31.4476 50.9087 31.6664 50.9087 31.8946C50.9087 32.1229 50.8181 32.3417 50.6569 32.5031C50.4957 32.6645 50.2771 32.7551 50.0491 32.7551V32.7551Z" fill="#040028"/>
<path d="M50.0491 23.1523H27.1276C26.8997 23.1523 26.681 23.0617 26.5198 22.9003C26.3586 22.7389 26.2681 22.5201 26.2681 22.2919C26.2681 22.0637 26.3586 21.8448 26.5198 21.6834C26.681 21.5221 26.8997 21.4314 27.1276 21.4314H50.0491C50.2771 21.4314 50.4957 21.5221 50.6569 21.6834C50.8181 21.8448 50.9087 22.0637 50.9087 22.2919C50.9087 22.5201 50.8181 22.7389 50.6569 22.9003C50.4957 23.0617 50.2771 23.1523 50.0491 23.1523Z" fill="#040028"/>
<path d="M50.0491 40.9353H27.1276C26.8997 40.9353 26.681 40.8446 26.5198 40.6833C26.3586 40.5219 26.2681 40.303 26.2681 40.0748C26.2681 39.8466 26.3586 39.6277 26.5198 39.4664C26.681 39.305 26.8997 39.2144 27.1276 39.2144H50.0491C50.2771 39.2144 50.4957 39.305 50.6569 39.4664C50.8181 39.6277 50.9087 39.8466 50.9087 40.0748C50.9087 40.303 50.8181 40.5219 50.6569 40.6833C50.4957 40.8446 50.2771 40.9353 50.0491 40.9353Z" fill="#040028"/>
<path d="M50.0491 49.1269H27.1276C26.8997 49.1269 26.681 49.0363 26.5198 48.8749C26.3586 48.7136 26.2681 48.4947 26.2681 48.2665C26.2681 48.0383 26.3586 47.8194 26.5198 47.658C26.681 47.4967 26.8997 47.406 27.1276 47.406H50.0491C50.2771 47.406 50.4957 47.4967 50.6569 47.658C50.8181 47.8194 50.9087 48.0383 50.9087 48.2665C50.9087 48.4947 50.8181 48.7136 50.6569 48.8749C50.4957 49.0363 50.2771 49.1269 50.0491 49.1269Z" fill="#040028"/>
<path d="M50.0491 57.3645H27.1276C26.8997 57.3645 26.681 57.2738 26.5198 57.1125C26.3586 56.9511 26.2681 56.7322 26.2681 56.504C26.2681 56.2758 26.3586 56.057 26.5198 55.8956C26.681 55.7342 26.8997 55.6436 27.1276 55.6436H50.0491C50.2771 55.6436 50.4957 55.7342 50.6569 55.8956C50.8181 56.057 50.9087 56.2758 50.9087 56.504C50.9087 56.7322 50.8181 56.9511 50.6569 57.1125C50.4957 57.2738 50.2771 57.3645 50.0491 57.3645V57.3645Z" fill="#040028"/>
</g>
<defs>
<clipPath id="clip0">
<rect width="59" height="68" fill="white"/>
</clipPath>
</defs>
</svg>
