<svg width="56" height="68" viewBox="0 0 56 68" fill="none" xmlns="http://www.w3.org/2000/svg">
<g clip-path="url(#clip0)">
<path d="M51.0508 68.0201H23.0342C21.7479 68.0201 20.5143 67.5121 19.6048 66.6077C18.6953 65.7034 18.1843 64.4768 18.1843 63.1978V20.4161C18.1843 19.1371 18.6953 17.9105 19.6048 17.0062C20.5143 16.1018 21.7479 15.5938 23.0342 15.5938H51.0508C52.3371 15.5938 53.5707 16.1018 54.4802 17.0062C55.3897 17.9105 55.9007 19.1371 55.9007 20.4161V63.1775C55.9033 63.8125 55.7799 64.4417 55.5374 65.0292C55.2948 65.6166 54.938 66.1506 54.4874 66.6005C54.0368 67.0505 53.5012 67.4075 52.9115 67.6511C52.3218 67.8947 51.6894 68.0201 51.0508 68.0201V68.0201ZM23.0342 17.1166C22.1549 17.1193 21.3125 17.4678 20.6907 18.086C20.069 18.7041 19.7185 19.5418 19.7159 20.4161V63.1775C19.7185 64.0518 20.069 64.8894 20.6907 65.5076C21.3125 66.1258 22.1549 66.4743 23.0342 66.477H51.0508C51.9301 66.4743 52.7725 66.1258 53.3943 65.5076C54.016 64.8894 54.3664 64.0518 54.3691 63.1775V20.4161C54.3664 19.5418 54.016 18.7041 53.3943 18.086C52.7725 17.4678 51.9301 17.1193 51.0508 17.1166H23.0342Z" fill="#D3D2D1"/>
<path d="M32.9483 8.81226H4.84993C2.59437 8.81226 0.765869 10.6304 0.765869 12.8732V55.6346C0.765869 57.8774 2.59437 59.6955 4.84993 59.6955H32.9483C35.2039 59.6955 37.0324 57.8774 37.0324 55.6346V12.8732C37.0324 10.6304 35.2039 8.81226 32.9483 8.81226Z" fill="white"/>
<path d="M32.9482 60.4569H4.84982C3.56357 60.4569 2.33 59.9488 1.42048 59.0445C0.510962 58.1401 0 56.9135 0 55.6345L0 12.8731C0 11.5942 0.510962 10.3676 1.42048 9.46321C2.33 8.55885 3.56357 8.05078 4.84982 8.05078H32.9482C34.2309 8.05615 35.4592 8.56659 36.3643 9.47037C37.2694 10.3742 37.7776 11.5977 37.7776 12.8731V55.6345C37.7776 56.91 37.2694 58.1335 36.3643 59.0373C35.4592 59.9411 34.2309 60.4515 32.9482 60.4569V60.4569ZM4.84982 9.57362C3.97058 9.5763 3.12813 9.92479 2.50641 10.543C1.88469 11.1612 1.53422 11.9989 1.53152 12.8731V55.6345C1.53422 56.5088 1.88469 57.3465 2.50641 57.9647C3.12813 58.5829 3.97058 58.9314 4.84982 58.934H32.9482C33.8282 58.934 34.6723 58.5864 35.2946 57.9676C35.9169 57.3489 36.2665 56.5096 36.2665 55.6345V12.8731C36.2665 11.998 35.9169 11.1588 35.2946 10.54C34.6723 9.92125 33.8282 9.57362 32.9482 9.57362H4.84982Z" fill="#D3D2D1"/>
<path d="M29.824 29.2689H9.4037C9.20061 29.2689 9.00583 29.1887 8.86223 29.0459C8.71862 28.9031 8.63794 28.7095 8.63794 28.5075C8.63794 28.3056 8.71862 28.1119 8.86223 27.9691C9.00583 27.8263 9.20061 27.7461 9.4037 27.7461H29.824C30.0271 27.7461 30.2219 27.8263 30.3655 27.9691C30.5091 28.1119 30.5898 28.3056 30.5898 28.5075C30.5898 28.7095 30.5091 28.9031 30.3655 29.0459C30.2219 29.1887 30.0271 29.2689 29.824 29.2689Z" fill="#040028"/>
<path d="M29.824 20.7716H9.4037C9.20061 20.7716 9.00583 20.6914 8.86223 20.5486C8.71862 20.4058 8.63794 20.2121 8.63794 20.0102C8.63794 19.8083 8.71862 19.6146 8.86223 19.4718C9.00583 19.329 9.20061 19.2488 9.4037 19.2488H29.824C30.0271 19.2488 30.2219 19.329 30.3655 19.4718C30.5091 19.6146 30.5898 19.8083 30.5898 20.0102C30.5898 20.2121 30.5091 20.4058 30.3655 20.5486C30.2219 20.6914 30.0271 20.7716 29.824 20.7716Z" fill="#040028"/>
<path d="M29.824 36.5482H9.4037C9.20061 36.5482 9.00583 36.468 8.86223 36.3252C8.71862 36.1824 8.63794 35.9888 8.63794 35.7868C8.63794 35.5849 8.71862 35.3912 8.86223 35.2484C9.00583 35.1056 9.20061 35.0254 9.4037 35.0254H29.824C30.0271 35.0254 30.2219 35.1056 30.3655 35.2484C30.5091 35.3912 30.5898 35.5849 30.5898 35.7868C30.5898 35.9888 30.5091 36.1824 30.3655 36.3252C30.2219 36.468 30.0271 36.5482 29.824 36.5482Z" fill="#040028"/>
<path d="M29.824 43.7562H9.4037C9.20061 43.7562 9.00583 43.676 8.86223 43.5332C8.71862 43.3904 8.63794 43.1968 8.63794 42.9948C8.63794 42.7929 8.71862 42.5992 8.86223 42.4564C9.00583 42.3136 9.20061 42.2334 9.4037 42.2334H29.824C30.0271 42.2334 30.2219 42.3136 30.3655 42.4564C30.5091 42.5992 30.5898 42.7929 30.5898 42.9948C30.5898 43.1968 30.5091 43.3904 30.3655 43.5332C30.2219 43.676 30.0271 43.7562 29.824 43.7562Z" fill="#040028"/>
<path d="M29.824 50.9948H9.4037C9.20061 50.9948 9.00583 50.9145 8.86223 50.7718C8.71862 50.629 8.63794 50.4353 8.63794 50.2333C8.63794 50.0314 8.71862 49.8377 8.86223 49.6949C9.00583 49.5521 9.20061 49.4719 9.4037 49.4719H29.824C30.0271 49.4719 30.2219 49.5521 30.3655 49.6949C30.5091 49.8377 30.5898 50.0314 30.5898 50.2333C30.5898 50.4353 30.5091 50.629 30.3655 50.7718C30.2219 50.9145 30.0271 50.9948 29.824 50.9948Z" fill="#040028"/>
<path d="M12.0276 8.05072C12.0276 6.55882 12.4725 5.10043 13.3061 3.85997C14.1397 2.61951 15.3245 1.65268 16.7106 1.08176C18.0968 0.510837 19.6222 0.361457 21.0937 0.652511C22.5653 0.943565 23.917 1.66198 24.978 2.71691C26.0389 3.77184 26.7614 5.1159 27.0541 6.57912C27.3468 8.04235 27.1966 9.55902 26.6224 10.9374C26.0482 12.3157 25.0759 13.4938 23.8284 14.3226C22.5808 15.1515 21.1141 15.5939 19.6137 15.5939C17.6018 15.5939 15.6722 14.7991 14.2495 13.3845C12.8268 11.9699 12.0276 10.0513 12.0276 8.05072V8.05072Z" fill="#F9D7C8" stroke="#F9D7C8" stroke-miterlimit="10"/>
<path d="M19.8442 11.0377C20.6308 11.0377 21.2908 10.7577 21.8242 10.1977L22.4642 10.8277C22.1508 11.1877 21.7642 11.461 21.3042 11.6477C20.8442 11.8343 20.3408 11.9277 19.7942 11.9277C19.2142 11.9277 18.6775 11.821 18.1842 11.6077C17.6908 11.3877 17.2742 11.081 16.9342 10.6877C16.5942 10.2943 16.3542 9.83766 16.2142 9.31766H15.0742V8.75766H16.1142C16.1008 8.58432 16.0942 8.44766 16.0942 8.34766C16.0942 8.24766 16.1008 8.11099 16.1142 7.93766H15.0742V7.37766H16.2142C16.3542 6.85766 16.5942 6.40099 16.9342 6.00766C17.2742 5.61432 17.6908 5.31099 18.1842 5.09766C18.6775 4.87766 19.2142 4.76766 19.7942 4.76766C20.3475 4.76766 20.8508 4.86099 21.3042 5.04766C21.7642 5.23432 22.1508 5.50432 22.4642 5.85766L21.8242 6.48766C21.2975 5.93432 20.6375 5.65766 19.8442 5.65766C19.2375 5.65766 18.7042 5.81432 18.2442 6.12766C17.7842 6.44099 17.4608 6.85766 17.2742 7.37766H20.4442V7.93766H17.1342C17.1142 8.06432 17.1042 8.20099 17.1042 8.34766C17.1042 8.48766 17.1142 8.62432 17.1342 8.75766H20.4442V9.31766H17.2742C17.4608 9.83766 17.7842 10.2543 18.2442 10.5677C18.7042 10.881 19.2375 11.0377 19.8442 11.0377Z" fill="#040028"/>
</g>
<defs>
<clipPath id="clip0">
<rect width="55.8904" height="68" fill="white"/>
</clipPath>
</defs>
</svg>
