<svg width="88" height="68" viewBox="0 0 88 68" fill="none" xmlns="http://www.w3.org/2000/svg">
<g clip-path="url(#clip0)">
<path d="M83.4844 49.8807H24.3062C23.1412 49.8807 22.0239 49.4188 21.2002 48.5967C20.3764 47.7746 19.9136 46.6596 19.9136 45.497V4.3837C19.9136 3.22107 20.3764 2.10606 21.2002 1.28396C22.0239 0.461853 23.1412 0 24.3062 0L83.4844 0C84.6444 0.00923264 85.7539 0.474789 86.5719 1.29556C87.39 2.11634 87.8506 3.22605 87.8536 4.3837V45.497C87.8506 46.6546 87.39 47.7644 86.5719 48.5851C85.7539 49.4059 84.6444 49.8715 83.4844 49.8807V49.8807ZM24.3062 1.75348C23.6072 1.75348 22.9369 2.03059 22.4426 2.52386C21.9483 3.01712 21.6706 3.68612 21.6706 4.3837V45.497C21.6706 46.1946 21.9483 46.8636 22.4426 47.3568C22.9369 47.8501 23.6072 48.1272 24.3062 48.1272H83.4844C83.8305 48.1272 84.1732 48.0592 84.493 47.927C84.8127 47.7948 85.1033 47.6011 85.348 47.3568C85.5928 47.1126 85.7869 46.8226 85.9194 46.5035C86.0518 46.1844 86.12 45.8424 86.12 45.497V4.3837C86.12 4.0383 86.0518 3.69627 85.9194 3.37716C85.7869 3.05805 85.5928 2.76809 85.348 2.52386C85.1033 2.27962 84.8127 2.08588 84.493 1.9537C84.1732 1.82151 83.8305 1.75348 83.4844 1.75348H24.3062Z" fill="#D3D2D1"/>
<path d="M75.0384 9.22339H15.8603C13.9195 9.22339 12.3462 10.7935 12.3462 12.7304V53.8436C12.3462 55.7805 13.9195 57.3506 15.8603 57.3506H75.0384C76.9792 57.3506 78.5526 55.7805 78.5526 53.8436V12.7304C78.5526 10.7935 76.9792 9.22339 75.0384 9.22339Z" fill="white"/>
<path d="M75.0269 58.2274H15.8604C14.6954 58.2274 13.5781 57.7655 12.7544 56.9434C11.9306 56.1213 11.4678 55.0063 11.4678 53.8437V12.7304C11.4678 11.5678 11.9306 10.4527 12.7544 9.63064C13.5781 8.80853 14.6954 8.34668 15.8604 8.34668H75.0269C76.1919 8.34668 77.3092 8.80853 78.1329 9.63064C78.9567 10.4527 79.4195 11.5678 79.4195 12.7304V53.8437C79.4195 55.0063 78.9567 56.1213 78.1329 56.9434C77.3092 57.7655 76.1919 58.2274 75.0269 58.2274ZM15.8604 10.1002C15.1614 10.1002 14.4911 10.3773 13.9968 10.8705C13.5025 11.3638 13.2248 12.0328 13.2248 12.7304V53.8437C13.2248 54.5413 13.5025 55.2103 13.9968 55.7035C14.4911 56.1968 15.1614 56.4739 15.8604 56.4739H75.0269C75.7259 56.4739 76.3962 56.1968 76.8905 55.7035C77.3848 55.2103 77.6625 54.5413 77.6625 53.8437V12.7304C77.6625 12.0328 77.3848 11.3638 76.8905 10.8705C76.3962 10.3773 75.7259 10.1002 75.0269 10.1002H15.8604Z" fill="#D3D2D1"/>
<path d="M63.5707 19.0078H4.39256C2.45175 19.0078 0.878418 20.5779 0.878418 22.5148V63.6281C0.878418 65.5649 2.45175 67.135 4.39256 67.135H63.5707C65.5115 67.135 67.0848 65.5649 67.0848 63.6281V22.5148C67.0848 20.5779 65.5115 19.0078 63.5707 19.0078Z" fill="white"/>
<path d="M63.5708 68.0001H4.39267C3.22766 68.0001 2.11037 67.5383 1.28658 66.7162C0.462798 65.8941 0 64.779 0 63.6164L0 22.5148C0 21.3522 0.462798 20.2372 1.28658 19.4151C2.11037 18.593 3.22766 18.1311 4.39267 18.1311H63.5708C64.7308 18.1403 65.8403 18.6059 66.6584 19.4267C67.4764 20.2474 67.937 21.3572 67.94 22.5148V63.6164C67.937 64.7741 67.4764 65.8838 66.6584 66.7045C65.8403 67.5253 64.7308 67.9909 63.5708 68.0001V68.0001ZM4.39267 19.8729C4.04557 19.8729 3.70189 19.9413 3.38136 20.0742C3.06083 20.2071 2.76976 20.4019 2.52487 20.6474C2.27997 20.8929 2.08608 21.1842 1.95432 21.5047C1.82256 21.8251 1.75553 22.1684 1.75707 22.5148V63.6164C1.75707 64.314 2.03475 64.983 2.52902 65.4763C3.02329 65.9695 3.69367 66.2466 4.39267 66.2466H63.5708C64.2698 66.2466 64.9402 65.9695 65.4344 65.4763C65.9287 64.983 66.2064 64.314 66.2064 63.6164V22.5148C66.2079 22.1684 66.1409 21.8251 66.0091 21.5047C65.8774 21.1842 65.6835 20.8929 65.4386 20.6474C65.1937 20.4019 64.9026 20.2071 64.5821 20.0742C64.2616 19.9413 63.9179 19.8729 63.5708 19.8729H4.39267Z" fill="#D3D2D1"/>
<path d="M57.1636 34.1578H33.736C33.503 34.1578 33.2795 34.0654 33.1147 33.901C32.95 33.7366 32.8574 33.5136 32.8574 33.281C32.8574 33.0485 32.95 32.8255 33.1147 32.6611C33.2795 32.4967 33.503 32.4043 33.736 32.4043H57.1636C57.3966 32.4043 57.62 32.4967 57.7848 32.6611C57.9495 32.8255 58.0421 33.0485 58.0421 33.281C58.0421 33.5136 57.9495 33.7366 57.7848 33.901C57.62 34.0654 57.3966 34.1578 57.1636 34.1578V34.1578Z" fill="#040028"/>
<path d="M57.1636 41.5926H33.736C33.503 41.5926 33.2795 41.5002 33.1147 41.3358C32.95 41.1714 32.8574 40.9484 32.8574 40.7159C32.8574 40.4833 32.95 40.2603 33.1147 40.0959C33.2795 39.9315 33.503 39.8391 33.736 39.8391H57.1636C57.3966 39.8391 57.62 39.9315 57.7848 40.0959C57.9495 40.2603 58.0421 40.4833 58.0421 40.7159C58.0421 40.9484 57.9495 41.1714 57.7848 41.3358C57.62 41.5002 57.3966 41.5926 57.1636 41.5926Z" fill="#040028"/>
<path d="M57.1636 49.0274H33.736C33.503 49.0274 33.2795 48.935 33.1147 48.7706C32.95 48.6062 32.8574 48.3832 32.8574 48.1507C32.8574 47.9181 32.95 47.6951 33.1147 47.5307C33.2795 47.3663 33.503 47.2739 33.736 47.2739H57.1636C57.3966 47.2739 57.62 47.3663 57.7848 47.5307C57.9495 47.6951 58.0421 47.9181 58.0421 48.1507C58.0421 48.3832 57.9495 48.6062 57.7848 48.7706C57.62 48.935 57.3966 49.0274 57.1636 49.0274Z" fill="#040028"/>
<path d="M57.1636 57.5491H33.736C33.503 57.5491 33.2795 57.4568 33.1147 57.2923C32.95 57.1279 32.8574 56.9049 32.8574 56.6724C32.8574 56.4399 32.95 56.2169 33.1147 56.0524C33.2795 55.888 33.503 55.7957 33.736 55.7957H57.1636C57.3966 55.7957 57.62 55.888 57.7848 56.0524C57.9495 56.2169 58.0421 56.4399 58.0421 56.6724C58.0421 56.9049 57.9495 57.1279 57.7848 57.2923C57.62 57.4568 57.3966 57.5491 57.1636 57.5491V57.5491Z" fill="#040028"/>
<path d="M9.27735 37.4075C9.27735 35.6897 9.78779 34.0104 10.7441 32.5821C11.7005 31.1537 13.0597 30.0405 14.6501 29.3831C16.2404 28.7257 17.9904 28.5537 19.6786 28.8888C21.3669 29.224 22.9177 30.0512 24.1349 31.2659C25.3521 32.4806 26.181 34.0282 26.5168 35.713C26.8526 37.3979 26.6803 39.1443 26.0216 40.7313C25.3628 42.3184 24.2473 43.6749 22.816 44.6293C21.3848 45.5837 19.7021 46.0931 17.9807 46.0931C16.8373 46.0946 15.7049 45.871 14.6483 45.4351C13.5916 44.9991 12.6316 44.3594 11.8231 43.5526C11.0146 42.7457 10.3736 41.7876 9.93671 40.7332C9.49988 39.6787 9.27581 38.5485 9.27735 37.4075V37.4075Z" fill="#F9D7C8"/>
<path d="M17.9806 46.7594C16.1469 46.7593 14.3542 46.2176 12.8285 45.2026C11.3027 44.1876 10.1122 42.7446 9.40675 41.0555C8.70134 39.3663 8.51266 37.5066 8.86448 35.7107C9.2163 33.9147 10.0929 32.2629 11.3838 30.9633C12.6747 29.6636 14.3222 28.7743 16.1186 28.4075C17.9151 28.0406 19.7802 28.2125 21.4789 28.9016C23.1776 29.5907 24.6339 30.7661 25.6644 32.2798C26.6949 33.7934 27.2534 35.5776 27.2696 37.4075C27.2789 38.6313 27.0455 39.8448 26.583 40.9783C26.1205 42.1118 25.4379 43.1427 24.5746 44.0119C23.7113 44.8811 22.6842 45.5713 21.5525 46.0428C20.4209 46.5144 19.2069 46.7579 17.9806 46.7594V46.7594ZM17.9806 29.3882C16.3716 29.3883 14.7989 29.8656 13.4622 30.7594C12.1256 31.6532 11.0852 32.9233 10.4733 34.4084C9.86139 35.8934 9.70549 37.5264 10.0254 39.1001C10.3453 40.6737 11.1267 42.117 12.2701 43.2466C13.4136 44.3763 14.8677 45.1413 16.4478 45.4446C18.0278 45.7479 19.6625 45.5757 21.1443 44.95C22.6261 44.3243 23.8882 43.2732 24.7702 41.9303C25.6523 40.5873 26.1145 39.0131 26.0982 37.4075C26.0889 35.265 25.2296 33.2135 23.7082 31.7018C22.1869 30.1901 20.1274 29.3415 17.9806 29.3415V29.3882Z" fill="#F9D7C8"/>
</g>
<defs>
<clipPath id="clip0">
<rect width="87.8769" height="68" fill="white"/>
</clipPath>
</defs>
</svg>
