<svg width="69" height="69" viewBox="0 0 69 69" fill="none" xmlns="http://www.w3.org/2000/svg">
<g clip-path="url(#clip0)">
<path d="M34.329 68.6619C27.6339 68.6645 21.0884 66.6813 15.5205 62.9632C9.95265 59.2452 5.61257 53.9593 3.04928 47.7743C0.485987 41.5893 -0.185351 34.783 1.12019 28.2164C2.42572 21.6497 5.64948 15.6178 10.3837 10.8837C15.1178 6.14948 21.1497 2.92572 27.7164 1.62019C34.283 0.314649 41.0893 0.985987 47.2743 3.54928C53.4593 6.11257 58.7452 10.4526 62.4632 16.0205C66.1813 21.5884 68.1645 28.1339 68.1619 34.829C68.1484 43.7979 64.5795 52.3956 58.2375 58.7375C51.8956 65.0795 43.2979 68.6484 34.329 68.6619ZM34.329 2.90488C28.0145 2.90235 21.841 4.77251 16.5894 8.27884C11.3378 11.7852 7.24405 16.7701 4.82583 22.6033C2.4076 28.4364 1.77357 34.8557 3.00392 41.0492C4.23427 47.2428 7.27374 52.9323 11.7379 57.3983C16.2021 61.8642 21.8904 64.906 28.0834 66.1388C34.2764 67.3716 40.696 66.7402 46.5301 64.3243C52.3642 61.9084 57.3508 57.8166 60.8593 52.5664C64.3677 47.3163 66.2403 41.1436 66.2403 34.829C66.2302 26.3675 62.8652 18.2554 56.8833 12.271C50.9013 6.28663 42.7905 2.91844 34.329 2.90488Z" fill="#D3D2D1"/>
<path d="M34.3292 56.0692C30.1319 56.0667 26.0296 54.8199 22.5408 52.4865C19.0519 50.153 16.3332 46.8376 14.7281 42.9594C13.1231 39.0811 12.7038 34.8141 13.5233 30.6976C14.3427 26.5811 16.3642 22.8 19.3321 19.8321C22.3 16.8642 26.0811 14.8427 30.1976 14.0233C34.3141 13.2038 38.5811 13.6231 42.4594 15.2281C46.3376 16.8332 49.653 19.5519 51.9865 23.0408C54.3199 26.5296 55.5667 30.6319 55.5692 34.8292C55.5658 40.4614 53.327 45.8619 49.3444 49.8444C45.3619 53.827 39.9614 56.0658 34.3292 56.0692ZM34.3292 15.5363C30.5103 15.5363 26.7773 16.6689 23.6022 18.7908C20.4271 20.9127 17.9527 23.9286 16.4919 27.457C15.031 30.9854 14.6495 34.8678 15.3954 38.6131C16.1414 42.3583 17.9813 45.7983 20.6826 48.4977C23.3838 51.1971 26.8249 53.0348 30.5707 53.7783C34.3165 54.5217 38.1986 54.1376 41.726 52.6744C45.2534 51.2113 48.2677 48.7348 50.3875 45.5583C52.5073 42.3818 53.6374 38.648 53.6348 34.8292C53.6281 29.7111 51.5919 24.8046 47.9729 21.1855C44.3538 17.5665 39.4473 15.5303 34.3292 15.5235V15.5363Z" fill="#040028"/>
<path d="M34.3293 42.1954C38.3975 42.1954 41.6954 38.8975 41.6954 34.8293C41.6954 30.7611 38.3975 27.4631 34.3293 27.4631C30.2611 27.4631 26.9631 30.7611 26.9631 34.8293C26.9631 38.8975 30.2611 42.1954 34.3293 42.1954Z" fill="#F9D7C8"/>
<path d="M34.3292 42.8358C32.7456 42.8358 31.1976 42.3662 29.8809 41.4865C28.5642 40.6067 27.538 39.3562 26.932 37.8932C26.326 36.4302 26.1674 34.8203 26.4764 33.2671C26.7853 31.714 27.5479 30.2874 28.6676 29.1676C29.7874 28.0479 31.214 27.2853 32.7671 26.9764C34.3203 26.6674 35.9302 26.826 37.3932 27.432C38.8562 28.038 40.1067 29.0642 40.9865 30.3809C41.8662 31.6976 42.3358 33.2456 42.3358 34.8292C42.3324 36.9516 41.4878 38.9862 39.987 40.487C38.4862 41.9878 36.4516 42.8324 34.3292 42.8358ZM34.3292 28.1036C32.999 28.1036 31.6986 28.498 30.5926 29.237C29.4866 29.9761 28.6246 31.0265 28.1155 32.2554C27.6065 33.4843 27.4733 34.8366 27.7328 36.1413C27.9923 37.4459 28.6329 38.6443 29.5735 39.5849C30.514 40.5255 31.7124 41.166 33.0171 41.4255C34.3217 41.685 35.674 41.5518 36.9029 41.0428C38.1319 40.5338 39.1823 39.6717 39.9213 38.5657C40.6603 37.4597 41.0548 36.1594 41.0548 34.8292C41.0548 33.0454 40.3462 31.3347 39.0849 30.0735C37.8236 28.8122 36.1129 28.1036 34.3292 28.1036Z" fill="#F9D7C8"/>
</g>
<defs>
<clipPath id="clip0">
<rect width="67.6787" height="67.6787" fill="white" transform="translate(0.483398 0.983398)"/>
</clipPath>
</defs>
</svg>
