<svg width="86" height="86" viewBox="0 0 86 86" fill="none" xmlns="http://www.w3.org/2000/svg">
<g clip-path="url(#clip0)">
<path d="M43.0083 86.0004C34.5007 86.0036 26.1833 83.4836 19.1082 78.759C12.033 74.0345 6.51802 67.3177 3.26082 59.4583C0.00361876 51.5989 -0.849458 42.9501 0.809502 34.6058C2.46846 26.2615 6.56492 18.5967 12.5807 12.5809C18.5965 6.56517 26.2613 2.46871 34.6056 0.809746C42.9498 -0.849213 51.5987 0.0038629 59.4581 3.26106C67.3174 6.51827 74.0342 12.0332 78.7588 19.1084C83.4833 26.1835 86.0034 34.501 86.0002 43.0086C85.9829 54.4054 81.4479 65.3306 73.3891 73.3894C65.3303 81.4482 54.4052 85.9832 43.0083 86.0004ZM43.0083 2.44222C34.9844 2.439 27.1397 4.81544 20.4664 9.27097C13.7932 13.7265 8.59117 20.061 5.5183 27.4732C2.44543 34.8855 1.63976 43.0425 3.20318 50.9127C4.76661 58.7828 8.62889 66.0126 14.3015 71.6875C19.9742 77.3625 27.2024 81.2277 35.0719 82.7942C42.9415 84.3608 51.0989 83.5584 58.5123 80.4885C65.9258 77.4186 72.2624 72.2192 76.7206 65.5477C81.1788 58.8762 83.5584 51.0325 83.5584 43.0086C83.5455 32.2565 79.2696 21.9482 71.6683 14.3438C64.0669 6.73944 53.7604 2.45945 43.0083 2.44222Z" fill="#D3D2D1"/>
<path d="M43.0077 69.9981C37.6742 69.9949 32.4614 68.4106 28.0281 65.4454C23.5948 62.4803 20.14 58.2674 18.1004 53.3393C16.0609 48.4111 15.5281 42.989 16.5694 37.7581C17.6107 32.5273 20.1794 27.7225 23.9507 23.9511C27.7221 20.1798 32.5268 17.6111 37.7577 16.5698C42.9886 15.5285 48.4107 16.0613 53.3389 18.1009C58.267 20.1404 62.4799 23.5952 65.445 28.0285C68.4102 32.4618 69.9945 37.6746 69.9977 43.0081C69.9934 50.165 67.1484 57.0275 62.0877 62.0882C57.0271 67.1488 50.1646 69.9938 43.0077 69.9981ZM43.0077 18.4925C38.1551 18.4925 33.4114 19.9317 29.3768 22.628C25.3422 25.3243 22.1979 29.1567 20.3416 33.6402C18.4854 38.1238 18.0005 43.0572 18.9484 47.8163C19.8963 52.5755 22.2343 56.9466 25.6668 60.3768C29.0993 63.807 33.472 66.1422 38.2318 67.0869C42.9916 68.0316 47.9246 67.5435 52.4069 65.6842C56.8893 63.825 60.7195 60.6781 63.4132 56.6418C66.1068 52.6054 67.5428 47.8608 67.5396 43.0081C67.531 36.5045 64.9436 30.2697 60.3449 25.671C55.7461 21.0722 49.5113 18.4849 43.0077 18.4762V18.4925Z" fill="#A3FFD3"/>
<path d="M43.0077 52.3684C48.1772 52.3684 52.3679 48.1777 52.3679 43.0082C52.3679 37.8387 48.1772 33.6479 43.0077 33.6479C37.8382 33.6479 33.6475 37.8387 33.6475 43.0082C33.6475 48.1777 37.8382 52.3684 43.0077 52.3684Z" fill="#F9D7C8"/>
<path d="M43.0081 53.1823C40.9959 53.1823 39.0288 52.5856 37.3557 51.4676C35.6826 50.3497 34.3785 48.7607 33.6085 46.9016C32.8384 45.0425 32.6369 42.9968 33.0295 41.0233C33.4221 39.0497 34.391 37.2368 35.8139 35.8139C37.2368 34.391 39.0497 33.4221 41.0233 33.0295C42.9968 32.6369 45.0425 32.8384 46.9016 33.6085C48.7607 34.3785 50.3497 35.6826 51.4676 37.3557C52.5856 39.0288 53.1823 40.9959 53.1823 43.0081C53.178 45.7052 52.1047 48.2905 50.1976 50.1976C48.2905 52.1047 45.7052 53.178 43.0081 53.1823ZM43.0081 34.4619C41.3178 34.4619 39.6655 34.9631 38.2601 35.9022C36.8546 36.8412 35.7592 38.176 35.1124 39.7376C34.4655 41.2992 34.2963 43.0176 34.6261 44.6754C34.9558 46.3332 35.7698 47.856 36.965 49.0513C38.1602 50.2465 39.683 51.0604 41.3408 51.3902C42.9987 51.72 44.717 51.5507 46.2787 50.9039C47.8403 50.257 49.175 49.1616 50.1141 47.7562C51.0532 46.3508 51.5544 44.6984 51.5544 43.0081C51.5544 40.7415 50.654 38.5677 49.0513 36.965C47.4485 35.3623 45.2747 34.4619 43.0081 34.4619Z" fill="#F9D7C8"/>
</g>
<defs>
<clipPath id="clip0">
<rect width="86" height="86" fill="white"/>
</clipPath>
</defs>
</svg>
