<svg width="66" height="68" viewBox="0 0 66 68" fill="none" xmlns="http://www.w3.org/2000/svg">
<g clip-path="url(#clip0)">
<path d="M38.6521 44.9997C38.6521 45.292 38.6521 45.5844 38.6521 45.8768H24.7131C24.7298 45.6714 24.7298 45.4649 24.7131 45.2595C24.6748 43.9096 24.1026 42.63 23.1219 41.7013C22.1412 40.7726 20.8322 40.2707 19.4819 40.3056C18.1316 40.2707 16.8225 40.7726 15.8418 41.7013C14.8612 42.63 14.289 43.9096 14.2507 45.2595C14.234 45.4649 14.234 45.6714 14.2507 45.8768H0.620361C0.620361 45.5844 0.620361 45.292 0.620361 44.9997C0.620361 33.4351 7.54112 24.0632 19.6281 24.0632C31.7151 24.0632 38.6521 33.4351 38.6521 44.9997Z" fill="#040028"/>
<path d="M19.6282 16.5593C17.9959 16.5593 16.4003 16.0754 15.0431 15.1687C13.6859 14.2621 12.6281 12.9734 12.0035 11.4657C11.3788 9.95802 11.2154 8.29899 11.5338 6.69843C11.8523 5.09786 12.6383 3.62765 13.7925 2.47371C14.9467 1.31977 16.4172 0.533926 18.0181 0.215554C19.619 -0.102818 21.2784 0.0605819 22.7864 0.685091C24.2945 1.3096 25.5834 2.36717 26.4902 3.72406C27.3971 5.08095 27.8811 6.67622 27.8811 8.30814C27.8832 9.3923 27.6712 10.4662 27.2572 11.4682C26.8433 12.4703 26.2354 13.3807 25.4686 14.1473C24.7019 14.914 23.7912 15.5217 22.789 15.9356C21.7867 16.3495 20.7126 16.5614 19.6282 16.5593Z" fill="#F9D7C8"/>
<path d="M44.9226 0.154419H65.4899V44.5936C65.2788 57.49 56.5709 65.595 44.9389 67.609V0.154419H44.9226Z" fill="#040028"/>
</g>
<defs>
<clipPath id="clip0">
<rect width="64.87" height="67.5358" fill="white" transform="translate(0.620361 0.0732422)"/>
</clipPath>
</defs>
</svg>
