<svg width="97" height="100" viewBox="0 0 97 100" fill="none" xmlns="http://www.w3.org/2000/svg">
<g clip-path="url(#clip0)">
<path d="M56.8688 66.5224C56.8688 66.9553 56.8688 67.3882 56.8688 67.8211H36.0258C36.0508 67.5169 36.0508 67.2113 36.0258 66.9072C35.9686 64.9083 35.1129 63.0136 33.6465 61.6384C32.1801 60.2633 30.2227 59.5202 28.2036 59.5719C26.1845 59.5202 24.2271 60.2633 22.7607 61.6384C21.2943 63.0136 20.4386 64.9083 20.3814 66.9072C20.3564 67.2113 20.3564 67.5169 20.3814 67.8211H0C0 67.3882 0 66.9553 0 66.5224C0 49.3987 10.3486 35.5219 28.4222 35.5219C46.4959 35.5219 56.8688 49.3987 56.8688 66.5224Z" fill="#A3FFD3"/>
<path d="M28.4226 24.4108C25.9819 24.4108 23.596 23.6942 21.5666 22.3518C19.5372 21.0093 17.9554 19.1012 17.0214 16.8688C16.0874 14.6363 15.843 12.1798 16.3192 9.80987C16.7953 7.43993 17.9707 5.26299 19.6965 3.55435C21.4224 1.84572 23.6213 0.682123 26.0151 0.210712C28.4089 -0.2607 30.8902 -0.0187542 33.1452 0.905953C35.4001 1.83066 37.3275 3.3966 38.6835 5.40574C40.0395 7.41488 40.7632 9.77699 40.7632 12.1934C40.7664 13.7987 40.4494 15.3888 39.8304 16.8725C39.2113 18.3562 38.3025 19.7043 37.1559 20.8395C36.0093 21.9746 34.6476 22.8744 33.149 23.4872C31.6503 24.1001 30.0441 24.414 28.4226 24.4108Z" fill="#F9D7C8"/>
<path d="M86.9507 87.9703C82.1048 93.0742 75.459 96.5602 67.7694 98.1862V1.62024H95.4994V65.9086C95.3448 75.0942 92.1456 82.4989 86.9507 87.9703Z" stroke="#D3D2D1" stroke-width="3"/>
</g>
<defs>
<clipPath id="clip0">
<rect width="97" height="100" fill="white"/>
</clipPath>
</defs>
</svg>
