<svg width="87" height="79" viewBox="0 0 87 79" fill="none" xmlns="http://www.w3.org/2000/svg">
<g clip-path="url(#clip0)">
<path d="M79.5593 67.1803H7.10936C5.33055 67.1803 3.62459 66.4735 2.36678 65.2155C1.10897 63.9575 0.402344 62.2513 0.402344 60.4722L0.402344 15.8173C0.402344 14.0381 1.10897 12.3319 2.36678 11.0739C3.62459 9.81588 5.33055 9.10913 7.10936 9.10913H79.5593C81.3381 9.10913 83.0441 9.81588 84.3019 11.0739C85.5597 12.3319 86.2663 14.0381 86.2663 15.8173V60.4722C86.2663 62.2513 85.5597 63.9575 84.3019 65.2155C83.0441 66.4735 81.3381 67.1803 79.5593 67.1803ZM7.10936 11.2275C5.89343 11.2312 4.72835 11.716 3.86855 12.5759C3.00875 13.4359 2.52407 14.6011 2.52035 15.8173V60.4722C2.52407 61.6883 3.00875 62.8536 3.86855 63.7135C4.72835 64.5735 5.89343 65.0582 7.10936 65.0619H79.5593C80.7764 65.0619 81.9436 64.5784 82.8042 63.7176C83.6648 62.8569 84.1483 61.6895 84.1483 60.4722V15.8173C84.1483 14.6 83.6648 13.4325 82.8042 12.5718C81.9436 11.711 80.7764 11.2275 79.5593 11.2275H7.10936Z" fill="#D3D2D1"/>
<path d="M43.4543 77.4191C43.1734 77.4191 42.904 77.3075 42.7054 77.1089C42.5068 76.9102 42.3953 76.6408 42.3953 76.3599V70.0049C42.3953 69.7239 42.5068 69.4545 42.7054 69.2559C42.904 69.0573 43.1734 68.9457 43.4543 68.9457C43.7351 68.9457 44.0045 69.0573 44.2031 69.2559C44.4017 69.4545 44.5133 69.7239 44.5133 70.0049V76.3599C44.5133 76.6408 44.4017 76.9102 44.2031 77.1089C44.0045 77.3075 43.7351 77.4191 43.4543 77.4191Z" fill="#D3D2D1"/>
<path d="M63.6883 78.8312H22.9943C22.7134 78.8312 22.4441 78.7197 22.2455 78.521C22.0469 78.3224 21.9353 78.053 21.9353 77.7721C21.9353 77.4912 22.0469 77.2218 22.2455 77.0231C22.4441 76.8245 22.7134 76.7129 22.9943 76.7129H63.6883C63.9691 76.7129 64.2385 76.8245 64.4371 77.0231C64.6357 77.2218 64.7473 77.4912 64.7473 77.7721C64.7473 78.053 64.6357 78.3224 64.4371 78.521C64.2385 78.7197 63.9691 78.8312 63.6883 78.8312Z" fill="#D3D2D1"/>
<path d="M85.2073 57.6478H1.46135C1.18048 57.6478 0.91112 57.5362 0.712519 57.3375C0.513917 57.1389 0.402344 56.8695 0.402344 56.5886C0.402344 56.3077 0.513917 56.0383 0.712519 55.8396C0.91112 55.641 1.18048 55.5294 1.46135 55.5294H85.2073C85.4882 55.5294 85.7575 55.641 85.9561 55.8396C86.1547 56.0383 86.2663 56.3077 86.2663 56.5886C86.2663 56.8695 86.1547 57.1389 85.9561 57.3375C85.7575 57.5362 85.4882 57.6478 85.2073 57.6478Z" fill="#D3D2D1"/>
<path d="M43.3415 20.1529C41.3665 20.1556 39.435 19.5724 37.7914 18.477C36.1479 17.3816 34.8662 15.8232 34.1084 13.999C33.3507 12.1749 33.151 10.1669 33.5346 8.22913C33.9182 6.2914 34.8678 4.51101 36.2634 3.11324C37.659 1.71546 39.4377 0.763128 41.3746 0.376728C43.3115 -0.00967285 45.3194 0.187227 47.1444 0.942515C48.9693 1.6978 50.5293 2.97753 51.6268 4.61978C52.7244 6.26203 53.3102 8.19299 53.3102 10.1683C53.3065 12.8128 52.2555 15.3481 50.3872 17.2194C48.5189 19.0906 45.9855 20.1454 43.3415 20.1529Z" fill="#F9D7C8"/>
<path d="M41.2375 14.4191H41.1387C40.9896 14.4049 40.8455 14.3584 40.7162 14.2828C40.587 14.2072 40.4758 14.1043 40.3903 13.9813L37.5663 10.1824C37.3997 9.95583 37.3298 9.6723 37.3722 9.39421C37.4146 9.11612 37.5657 8.86626 37.7922 8.69958C38.0188 8.53291 38.3023 8.46308 38.5803 8.50545C38.8584 8.54783 39.1082 8.69894 39.2748 8.92554L41.3505 11.7783L47.4786 6.19993C47.6789 6.00496 47.9474 5.89587 48.2269 5.89587C48.5065 5.89587 48.775 6.00496 48.9753 6.19993C49.1736 6.39852 49.285 6.66773 49.285 6.94841C49.285 7.22909 49.1736 7.4983 48.9753 7.6969L41.9153 14.0661C41.8314 14.167 41.7283 14.2502 41.6119 14.3108C41.4955 14.3714 41.3683 14.4082 41.2375 14.4191Z" fill="#040028"/>
</g>
<defs>
<clipPath id="clip0">
<rect width="85.864" height="78.6333" fill="white" transform="translate(0.402344 0.197998)"/>
</clipPath>
</defs>
</svg>
