<svg width="100" height="92" viewBox="0 0 100 92" fill="none" xmlns="http://www.w3.org/2000/svg">
<g clip-path="url(#clip0)">
<path d="M92.1888 78.3685H7.81121C5.73955 78.3685 3.75274 77.5416 2.28785 76.0697C0.822965 74.5979 0 72.6016 0 70.5201L0 18.2744C0 16.1929 0.822965 14.1966 2.28785 12.7247C3.75274 11.2528 5.73955 10.426 7.81121 10.426H92.1888C94.2604 10.426 96.2473 11.2528 97.7121 12.7247C99.177 14.1966 100 16.1929 100 18.2744V70.5201C100 72.6016 99.177 74.5979 97.7121 76.0697C96.2473 77.5416 94.2604 78.3685 92.1888 78.3685ZM7.81121 12.9044C6.3951 12.9088 5.03822 13.4759 4.03686 14.4821C3.03551 15.4882 2.47104 16.8515 2.4667 18.2744V70.5201C2.47104 71.9429 3.03551 73.3063 4.03686 74.3124C5.03822 75.3185 6.3951 75.8857 7.81121 75.8901H92.1888C93.6062 75.8901 94.9656 75.3243 95.9679 74.3172C96.9702 73.3102 97.5333 71.9443 97.5333 70.5201V18.2744C97.5333 16.8502 96.9702 15.4843 95.9679 14.4772C94.9656 13.4702 93.6062 12.9044 92.1888 12.9044H7.81121Z" fill="#D3D2D1"/>
<path d="M50.1396 90.3477C49.8125 90.3477 49.4988 90.2171 49.2675 89.9847C49.0362 89.7523 48.9062 89.4371 48.9062 89.1085V81.6731C48.9062 81.3445 49.0362 81.0293 49.2675 80.7969C49.4988 80.5645 49.8125 80.4339 50.1396 80.4339C50.4667 80.4339 50.7804 80.5645 51.0117 80.7969C51.243 81.0293 51.373 81.3445 51.373 81.6731V89.1085C51.373 89.4371 51.243 89.7523 51.0117 89.9847C50.7804 90.2171 50.4667 90.3477 50.1396 90.3477Z" fill="#D3D2D1"/>
<path d="M73.705 92H26.3115C25.9844 92 25.6707 91.8694 25.4394 91.637C25.2081 91.4046 25.0781 91.0894 25.0781 90.7608C25.0781 90.4321 25.2081 90.1169 25.4394 89.8845C25.6707 89.6521 25.9844 89.5215 26.3115 89.5215H73.705C74.0321 89.5215 74.3458 89.6521 74.5771 89.8845C74.8084 90.1169 74.9383 90.4321 74.9383 90.7608C74.9383 91.0894 74.8084 91.4046 74.5771 91.637C74.3458 91.8694 74.0321 92 73.705 92Z" fill="#D3D2D1"/>
<path d="M98.7666 67.2155H1.23335C0.906245 67.2155 0.592538 67.0849 0.36124 66.8525C0.129942 66.6201 0 66.3049 0 65.9763C0 65.6476 0.129942 65.3324 0.36124 65.1C0.592538 64.8676 0.906245 64.7371 1.23335 64.7371H98.7666C99.0938 64.7371 99.4075 64.8676 99.6387 65.1C99.87 65.3324 100 65.6476 100 65.9763C100 66.3049 99.87 66.6201 99.6387 66.8525C99.4075 67.0849 99.0938 67.2155 98.7666 67.2155Z" fill="#D3D2D1"/>
<path d="M50.0081 23.347C47.7079 23.3502 45.4584 22.6679 43.5443 21.3863C41.6302 20.1046 40.1375 18.2814 39.255 16.1471C38.3725 14.0128 38.1399 11.6635 38.5866 9.39635C39.0334 7.12923 40.1394 5.0462 41.7647 3.41082C43.39 1.77544 45.4616 0.661222 47.7174 0.209138C49.9731 -0.242946 52.3116 -0.0125748 54.437 0.871102C56.5624 1.75478 58.3792 3.25205 59.6575 5.17346C60.9357 7.09487 61.618 9.35407 61.618 11.6652C61.6137 14.7592 60.3896 17.7255 58.2137 19.9148C56.0379 22.1041 53.0874 23.3382 50.0081 23.347Z" fill="#F9D7C8"/>
<path d="M47.5578 16.6386H47.4426C47.2691 16.622 47.1012 16.5675 46.9507 16.4791C46.8001 16.3906 46.6706 16.2703 46.5711 16.1264L43.2821 11.6817C43.0881 11.4166 43.0067 11.0849 43.0561 10.7595C43.1054 10.4342 43.2814 10.1418 43.5453 9.94681C43.8091 9.7518 44.1393 9.6701 44.4631 9.71968C44.7869 9.76926 45.0779 9.94606 45.272 10.2112L47.6893 13.5488L54.8263 7.02224C55.0596 6.79413 55.3723 6.6665 55.6979 6.6665C56.0234 6.6665 56.3361 6.79413 56.5694 7.02224C56.8004 7.2546 56.9301 7.56956 56.9301 7.89796C56.9301 8.22635 56.8004 8.54132 56.5694 8.77368L48.3471 16.2255C48.2494 16.3436 48.1293 16.4409 47.9938 16.5118C47.8582 16.5828 47.71 16.6259 47.5578 16.6386Z" fill="#040028"/>
</g>
<defs>
<clipPath id="clip0">
<rect width="100" height="92" fill="white"/>
</clipPath>
</defs>
</svg>
