<svg width="77" height="88" viewBox="0 0 77 88" fill="none" xmlns="http://www.w3.org/2000/svg">
<path d="M48.1325 76.6418H7.1047C5.22042 76.6418 3.41331 75.8988 2.08092 74.5762C0.748529 73.2536 0 71.4598 0 69.5893L0 7.05247C0 5.18204 0.748529 3.38822 2.08092 2.06562C3.41331 0.743026 5.22042 0 7.1047 0L48.1325 0C50.0168 0 51.8239 0.743026 53.1563 2.06562C54.4887 3.38822 55.2372 5.18204 55.2372 7.05247V69.5893C55.2372 71.4598 54.4887 73.2536 53.1563 74.5762C51.8239 75.8988 50.0168 76.6418 48.1325 76.6418ZM7.1047 2.2271C5.81667 2.23101 4.58252 2.74066 3.67173 3.64474C2.76095 4.54883 2.24753 5.77391 2.24359 7.05247V69.5893C2.24753 70.8679 2.76095 72.093 3.67173 72.9971C4.58252 73.9012 5.81667 74.4108 7.1047 74.4147H48.1325C49.4205 74.4108 50.6547 73.9012 51.5654 72.9971C52.4762 72.093 52.9896 70.8679 52.9936 69.5893V7.05247C52.9896 5.77391 52.4762 4.54883 51.5654 3.64474C50.6547 2.74066 49.4205 2.23101 48.1325 2.2271H7.1047Z" fill="#D3D2D1"/>
<path d="M69.8953 12.4717H28.7329C25.4286 12.4717 22.75 15.1306 22.75 18.4106V80.9475C22.75 84.2275 25.4286 86.8864 28.7329 86.8864H69.8953C73.1996 86.8864 75.8782 84.2275 75.8782 80.9475V18.4106C75.8782 15.1306 73.1996 12.4717 69.8953 12.4717Z" fill="#040028"/>
<path d="M69.8955 88H28.7331C26.8488 88 25.0417 87.2569 23.7093 85.9343C22.3769 84.6118 21.6284 82.8179 21.6284 80.9475V18.4106C21.6284 16.5402 22.3769 14.7464 23.7093 13.4238C25.0417 12.1012 26.8488 11.3582 28.7331 11.3582H69.8955C71.7798 11.3582 73.5869 12.1012 74.9193 13.4238C76.2517 14.7464 77.0002 16.5402 77.0002 18.4106V80.9475C77.0002 82.8179 76.2517 84.6118 74.9193 85.9343C73.5869 87.2569 71.7798 88 69.8955 88ZM28.7331 13.5853C27.4555 13.6047 26.2366 14.1212 25.3387 15.0236C24.4408 15.926 23.9356 17.1423 23.9318 18.4106V80.9475C23.9358 82.2261 24.4492 83.4511 25.36 84.3552C26.2708 85.2593 27.5049 85.769 28.7929 85.7729H69.8955C70.5359 85.7748 71.1703 85.6516 71.7627 85.4101C72.355 85.1687 72.8936 84.8138 73.3478 84.3657C73.802 83.9176 74.1628 83.3851 74.4097 82.7986C74.6565 82.2121 74.7846 81.5831 74.7865 80.9475V18.4106C74.7826 17.1321 74.2692 15.907 73.3584 15.0029C72.4476 14.0988 71.2135 13.5892 69.9254 13.5853H28.7331Z" fill="#D3D2D1"/>
<path d="M65.3186 45.4031H35.404C35.1065 45.4031 34.8212 45.2858 34.6108 45.077C34.4004 44.8681 34.2822 44.5849 34.2822 44.2896C34.2822 43.9942 34.4004 43.711 34.6108 43.5022C34.8212 43.2933 35.1065 43.176 35.404 43.176H65.3186C65.6161 43.176 65.9014 43.2933 66.1118 43.5022C66.3222 43.711 66.4403 43.9942 66.4403 44.2896C66.4403 44.5849 66.3222 44.8681 66.1118 45.077C65.9014 45.2858 65.6161 45.4031 65.3186 45.4031Z" fill="#A3FFD3"/>
<path d="M65.3186 55.9892H35.404C35.1065 55.9892 34.8212 55.8719 34.6108 55.663C34.4004 55.4542 34.2822 55.171 34.2822 54.8756C34.2822 54.5803 34.4004 54.2971 34.6108 54.0882C34.8212 53.8794 35.1065 53.7621 35.404 53.7621H65.3186C65.6161 53.7621 65.9014 53.8794 66.1118 54.0882C66.3222 54.2971 66.4403 54.5803 66.4403 54.8756C66.4403 55.171 66.3222 55.4542 66.1118 55.663C65.9014 55.8719 65.6161 55.9892 65.3186 55.9892Z" fill="#A3FFD3"/>
<path d="M65.3186 66.5901H35.404C35.1065 66.5901 34.8212 66.4728 34.6108 66.264C34.4004 66.0552 34.2822 65.7719 34.2822 65.4766C34.2822 65.1813 34.4004 64.898 34.6108 64.6892C34.8212 64.4804 35.1065 64.363 35.404 64.363H65.3186C65.6161 64.363 65.9014 64.4804 66.1118 64.6892C66.3222 64.898 66.4403 65.1813 66.4403 65.4766C66.4403 65.7719 66.3222 66.0552 66.1118 66.264C65.9014 66.4728 65.6161 66.5901 65.3186 66.5901Z" fill="#A3FFD3"/>
<path d="M65.3186 77.206H35.404C35.1065 77.206 34.8212 77.0887 34.6108 76.8798C34.4004 76.671 34.2822 76.3878 34.2822 76.0924C34.2822 75.7971 34.4004 75.5139 34.6108 75.305C34.8212 75.0962 35.1065 74.9789 35.404 74.9789H65.3186C65.6161 74.9789 65.9014 75.0962 66.1118 75.305C66.3222 75.5139 66.4403 75.7971 66.4403 76.0924C66.4403 76.3878 66.3222 76.671 66.1118 76.8798C65.9014 77.0887 65.6161 77.206 65.3186 77.206Z" fill="#A3FFD3"/>
<path d="M50.3612 35.4257C49.2417 35.4287 48.1465 35.1016 47.2144 34.4861C46.2824 33.8705 45.5554 32.9941 45.1256 31.968C44.6958 30.9419 44.5826 29.8122 44.8003 28.7222C45.018 27.6321 45.5568 26.6308 46.3484 25.845C47.14 25.0592 48.1488 24.5244 49.2469 24.3083C50.345 24.0922 51.483 24.2046 52.5168 24.6312C53.5505 25.0578 54.4333 25.7795 55.0534 26.7047C55.6736 27.6299 56.003 28.717 56 29.8283C56 31.3128 55.406 32.7365 54.3485 33.7863C53.291 34.836 51.8567 35.4257 50.3612 35.4257Z" fill="#F9D7C8"/>
</svg>
