<svg width="63" height="72" viewBox="0 0 63 72" fill="none" xmlns="http://www.w3.org/2000/svg">
<g clip-path="url(#clip0)">
<path d="M39.3282 62.7043H6.16639C4.64337 62.7043 3.18273 62.1015 2.10579 61.0286C1.02885 59.9556 0.423828 58.5004 0.423828 56.983L0.423828 6.25011C0.423828 4.73273 1.02885 3.27749 2.10579 2.20454C3.18273 1.13159 4.64337 0.528809 6.16639 0.528809L39.3282 0.528809C40.8512 0.528809 42.3118 1.13159 43.3888 2.20454C44.4657 3.27749 45.0707 4.73273 45.0707 6.25011V56.983C45.0707 58.5004 44.4657 59.9556 43.3888 61.0286C42.3118 62.1015 40.8512 62.7043 39.3282 62.7043ZM6.16639 2.33554C5.1253 2.33871 4.12777 2.75216 3.3916 3.4856C2.65544 4.21904 2.24046 5.21288 2.23727 6.25011V56.983C2.24046 58.0203 2.65544 59.0141 3.3916 59.7475C4.12777 60.481 5.1253 60.8944 6.16639 60.8976H39.3282C40.3693 60.8944 41.3668 60.481 42.103 59.7475C42.8391 59.0141 43.2541 58.0203 43.2573 56.983V6.25011C43.2541 5.21288 42.8391 4.21904 42.103 3.4856C41.3668 2.75216 40.3693 2.33871 39.3282 2.33554H6.16639Z" fill="#D3D2D1"/>
<path d="M56.9184 10.6465H23.6479C20.9771 10.6465 18.812 12.8035 18.812 15.4644V66.1973C18.812 68.8582 20.9771 71.0153 23.6479 71.0153H56.9184C59.5892 71.0153 61.7543 68.8582 61.7543 66.1973V15.4644C61.7543 12.8035 59.5892 10.6465 56.9184 10.6465Z" fill="white"/>
<path d="M56.9184 71.9187H23.6478C22.1248 71.9187 20.6642 71.3159 19.5872 70.243C18.5103 69.17 17.9053 67.7148 17.9053 66.1974V15.4645C17.9053 13.9471 18.5103 12.4918 19.5872 11.4189C20.6642 10.3459 22.1248 9.74316 23.6478 9.74316H56.9184C58.4415 9.74316 59.9021 10.3459 60.979 11.4189C62.056 12.4918 62.661 13.9471 62.661 15.4645V66.1974C62.661 67.7148 62.056 69.17 60.979 70.243C59.9021 71.3159 58.4415 71.9187 56.9184 71.9187ZM23.6478 11.5499C22.6152 11.5657 21.63 11.9847 20.9042 12.7168C20.1784 13.4488 19.7701 14.4355 19.7671 15.4645V66.1974C19.7703 67.2346 20.1852 68.2285 20.9214 68.9619C21.6576 69.6953 22.6551 70.1088 23.6962 70.112H56.9184C57.436 70.1135 57.9488 70.0135 58.4276 69.8177C58.9064 69.6218 59.3417 69.3339 59.7088 68.9704C60.0759 68.6069 60.3676 68.1749 60.5671 67.6991C60.7666 67.2233 60.8702 66.713 60.8717 66.1974V15.4645C60.8685 14.4272 60.4536 13.4334 59.7174 12.7C58.9812 11.9665 57.9837 11.5531 56.9426 11.5499H23.6478Z" fill="#D3D2D1"/>
<path d="M53.2192 37.3619H29.04C28.7995 37.3619 28.5689 37.2667 28.3989 37.0973C28.2288 36.9279 28.1333 36.6981 28.1333 36.4585C28.1333 36.219 28.2288 35.9892 28.3989 35.8198C28.5689 35.6504 28.7995 35.5552 29.04 35.5552H53.2192C53.4597 35.5552 53.6903 35.6504 53.8604 35.8198C54.0304 35.9892 54.1259 36.219 54.1259 36.4585C54.1259 36.6981 54.0304 36.9279 53.8604 37.0973C53.6903 37.2667 53.4597 37.3619 53.2192 37.3619Z" fill="#040028"/>
<path d="M53.2192 45.95H29.04C28.7995 45.95 28.5689 45.8549 28.3989 45.6855C28.2288 45.516 28.1333 45.2863 28.1333 45.0467C28.1333 44.8071 28.2288 44.5773 28.3989 44.4079C28.5689 44.2385 28.7995 44.1433 29.04 44.1433H53.2192C53.4597 44.1433 53.6903 44.2385 53.8604 44.4079C54.0304 44.5773 54.1259 44.8071 54.1259 45.0467C54.1259 45.2863 54.0304 45.516 53.8604 45.6855C53.6903 45.8549 53.4597 45.95 53.2192 45.95Z" fill="#040028"/>
<path d="M53.2192 54.5499H29.04C28.7995 54.5499 28.5689 54.4547 28.3989 54.2853C28.2288 54.1159 28.1333 53.8861 28.1333 53.6465C28.1333 53.4069 28.2288 53.1772 28.3989 53.0078C28.5689 52.8383 28.7995 52.7432 29.04 52.7432H53.2192C53.4597 52.7432 53.6903 52.8383 53.8604 53.0078C54.0304 53.1772 54.1259 53.4069 54.1259 53.6465C54.1259 53.8861 54.0304 54.1159 53.8604 54.2853C53.6903 54.4547 53.4597 54.5499 53.2192 54.5499Z" fill="#040028"/>
<path d="M53.2192 63.1619H29.04C28.7995 63.1619 28.5689 63.0668 28.3989 62.8974C28.2288 62.7279 28.1333 62.4982 28.1333 62.2586C28.1333 62.019 28.2288 61.7892 28.3989 61.6198C28.5689 61.4504 28.7995 61.3552 29.04 61.3552H53.2192C53.4597 61.3552 53.6903 61.4504 53.8604 61.6198C54.0304 61.7892 54.1259 62.019 54.1259 62.2586C54.1259 62.4982 54.0304 62.7279 53.8604 62.8974C53.6903 63.0668 53.4597 63.1619 53.2192 63.1619Z" fill="#040028"/>
<path d="M41.1296 29.2678C40.2247 29.2701 39.3395 29.0048 38.5861 28.5055C37.8328 28.0061 37.2452 27.2951 36.8978 26.4627C36.5504 25.6303 36.4589 24.7138 36.6348 23.8295C36.8108 22.9452 37.2463 22.1329 37.8861 21.4954C38.5259 20.8579 39.3413 20.4241 40.2289 20.2488C41.1165 20.0735 42.0363 20.1647 42.8719 20.5107C43.7074 20.8568 44.421 21.4423 44.9222 22.1928C45.4234 22.9434 45.6897 23.8253 45.6873 24.7269C45.6873 25.9312 45.2071 27.0862 44.3524 27.9378C43.4976 28.7893 42.3383 29.2678 41.1296 29.2678Z" fill="#F9D7C8"/>
</g>
<defs>
<clipPath id="clip0">
<rect width="62.2373" height="71.3898" fill="white" transform="translate(0.423828 0.528809)"/>
</clipPath>
</defs>
</svg>
