<svg width="85" height="88" viewBox="0 0 85 88" fill="none" xmlns="http://www.w3.org/2000/svg">
<path d="M26.5743 38.2104C23.5996 38.1995 20.695 37.3414 18.2272 35.7444C15.7594 34.1474 13.839 31.8831 12.7085 29.2374C11.578 26.5918 11.2881 23.6833 11.8754 20.8794C12.4627 18.0754 13.9008 15.5016 16.0082 13.483C18.1156 11.4643 20.7978 10.0913 23.7162 9.53728C26.6345 8.98328 29.6582 9.27311 32.4053 10.3702C35.1525 11.4673 37.5 13.3224 39.1515 15.7014C40.803 18.0804 41.6843 20.8765 41.6844 23.7368C41.6844 25.6421 41.2931 27.5288 40.5331 29.2884C39.773 31.048 38.6591 32.6461 37.2553 33.9908C35.8514 35.3355 34.1852 36.4005 32.3523 37.1246C30.5194 37.8487 28.5559 38.2177 26.5743 38.2104Z" fill="#F9D7C8"/>
<g clip-path="url(#clip0)">
<path d="M72.9984 27.5758L67.4268 21.9557C65.9526 20.4687 63.5561 20.4687 62.0819 21.9557L24.7739 59.5881C24.5925 59.7712 24.4829 59.9923 24.4299 60.2249L20.8881 72.9482C20.6198 73.9167 21.5156 74.7898 22.4492 74.5077L35.1347 70.916C35.3502 70.855 35.5354 70.7406 35.6828 70.5919L72.9908 32.9595C74.465 31.4725 74.465 29.0552 72.9908 27.5682L72.9984 27.5758ZM56.6275 36.6693L30.2321 63.2942L27.4501 60.488L53.8454 33.8631L56.6275 36.6693ZM32.0163 65.0938L58.4116 38.469L61.1974 41.279L34.8021 67.9039L32.0163 65.0938ZM26.2972 62.9205L32.3867 69.063L23.9159 71.4612L26.2934 62.9167L26.2972 62.9205ZM62.9778 39.4794L55.6296 32.0673L57.614 30.0655L64.9622 37.4777L62.9778 39.4794ZM66.7464 35.6818L59.3944 28.2697L63.8661 23.7592C64.3537 23.2673 65.1588 23.2673 65.6464 23.7592L71.218 29.3792C71.7057 29.8711 71.7057 30.6832 71.218 31.1751L66.7464 35.6856V35.6818Z" fill="#A3FFD3"/>
</g>
<rect x="0.75" y="0.75" width="83.0263" height="83.0263" rx="3.25" stroke="#D3D2D1" stroke-width="1.5"/>
<defs>
<clipPath id="clip0">
<rect width="53.2632" height="67.1579" fill="white" transform="translate(20.8423 20.8421)"/>
</clipPath>
</defs>
</svg>
