<svg width="73" height="76" viewBox="0 0 73 76" fill="none" xmlns="http://www.w3.org/2000/svg">
<path d="M22.9504 32.9999C20.3814 32.9905 17.8728 32.2494 15.7415 30.8701C13.6102 29.4909 11.9517 27.5354 10.9754 25.2505C9.99905 22.9656 9.74868 20.4538 10.2559 18.0322C10.7631 15.6106 12.0051 13.3877 13.8251 11.6444C15.6452 9.90096 17.9616 8.71518 20.482 8.23672C23.0024 7.75826 25.6137 8.00857 27.9863 8.95606C30.3588 9.90354 32.3862 11.5057 33.8125 13.5603C35.2388 15.6148 36 18.0297 36 20.4999C36 22.1455 35.6621 23.7748 35.0057 25.2945C34.3493 26.8142 33.3873 28.1943 32.1749 29.3557C30.9624 30.517 29.5235 31.4368 27.9405 32.0621C26.3575 32.6875 24.6617 33.0062 22.9504 32.9999Z" fill="#F9D7C8"/>
<g clip-path="url(#clip0)">
<path d="M63.0433 23.8152L58.2315 18.9615C56.9583 17.6772 54.8886 17.6772 53.6155 18.9615L21.3949 51.4622C21.2382 51.6203 21.1436 51.8112 21.0978 52.0121L18.039 63.0005C17.8072 63.8369 18.5809 64.5909 19.3873 64.3473L30.3429 61.2454C30.529 61.1927 30.6889 61.0939 30.8162 60.9655L63.0368 28.4647C64.31 27.1805 64.31 25.0928 63.0368 23.8086L63.0433 23.8152ZM48.9048 31.6687L26.1088 54.6629L23.7062 52.2393L46.5021 29.2451L48.9048 31.6687ZM27.6497 56.2171L50.4457 33.2229L52.8516 35.6498L30.0556 58.644L27.6497 56.2171ZM22.7105 54.3402L27.9696 59.645L20.6539 61.7162L22.7072 54.3369L22.7105 54.3402ZM54.3892 34.0955L48.043 27.6942L49.7568 25.9654L56.103 32.3668L54.3892 34.0955ZM57.6439 30.8158L51.2944 24.4145L55.1563 20.519C55.5774 20.0942 56.2728 20.0942 56.6939 20.519L61.5058 25.3727C61.9269 25.7975 61.9269 26.4989 61.5058 26.9236L57.6439 30.8191V30.8158Z" fill="#040028"/>
</g>
<rect x="0.75" y="0.75" width="71.5" height="71.5" rx="3.25" stroke="#D3D2D1" stroke-width="1.5"/>
<defs>
<clipPath id="clip0">
<rect width="46" height="58" fill="white" transform="translate(18 18)"/>
</clipPath>
</defs>
</svg>
