<svg width="117" height="88" viewBox="0 0 117 88" fill="none" xmlns="http://www.w3.org/2000/svg">
<path d="M110.404 88H90.2471C88.4978 88 86.8202 87.3063 85.5832 86.0715C84.3463 84.8367 83.6514 83.162 83.6514 81.4158V41.0327C83.656 39.2879 84.3524 37.6158 85.5883 36.3821C86.8243 35.1483 88.4993 34.4531 90.2471 34.4485H110.404C112.152 34.4531 113.827 35.1483 115.063 36.3821C116.298 37.6158 116.995 39.2879 117 41.0327V81.4158C117 83.162 116.305 84.8367 115.068 86.0715C113.831 87.3063 112.153 88 110.404 88ZM90.2471 37.0822C89.1975 37.0822 88.1909 37.4984 87.4488 38.2392C86.7066 38.9801 86.2897 39.9849 86.2897 41.0327V81.4158C86.2897 82.4635 86.7066 83.4684 87.4488 84.2092C88.1909 84.9501 89.1975 85.3663 90.2471 85.3663H110.404C111.447 85.357 112.445 84.9367 113.179 84.1969C113.914 83.457 114.326 82.4575 114.326 81.4158V41.0327C114.326 39.9849 113.909 38.9801 113.167 38.2392C112.425 37.4984 111.418 37.0822 110.369 37.0822H90.2471Z" fill="#D3D2D1"/>
<path d="M53.6282 84.9274C53.2798 84.9229 52.9469 84.7827 52.7005 84.5367C52.4541 84.2907 52.3136 83.9584 52.3091 83.6106V75.7095C52.3091 75.3603 52.4481 75.0253 52.6955 74.7784C52.9428 74.5314 53.2784 74.3927 53.6282 74.3927C53.9781 74.3927 54.3136 74.5314 54.561 74.7784C54.8084 75.0253 54.9474 75.3603 54.9474 75.7095V83.6106C54.9428 83.9584 54.8024 84.2907 54.556 84.5367C54.3096 84.7827 53.9767 84.9229 53.6282 84.9274Z" fill="#D3D2D1"/>
<path d="M78.8325 86.6832H28.1419C27.792 86.6832 27.4565 86.5444 27.2091 86.2975C26.9617 86.0505 26.8228 85.7156 26.8228 85.3663C26.8228 85.0171 26.9617 84.6821 27.2091 84.4352C27.4565 84.1882 27.792 84.0495 28.1419 84.0495H78.8325C79.1824 84.0495 79.5179 84.1882 79.7653 84.4352C80.0127 84.6821 80.1517 85.0171 80.1517 85.3663C80.1517 85.7156 80.0127 86.0505 79.7653 86.2975C79.5179 86.5444 79.1824 86.6832 78.8325 86.6832Z" fill="#D3D2D1"/>
<path d="M83.6518 69.5467H8.35463C6.83857 69.5467 5.3846 68.9455 4.31258 67.8754C3.24056 66.8052 2.6383 65.3538 2.6383 63.8404V60.3288H83.6518V57.6951H2.6383V8.33998C2.64294 6.828 3.24669 5.37927 4.3177 4.31013C5.38872 3.241 6.83999 2.63831 8.35463 2.63368H98.6022C100.118 2.63368 101.572 3.23488 102.644 4.30502C103.716 5.37516 104.319 6.82658 104.319 8.33998V34.3432H106.957V8.33998C106.957 6.12808 106.077 4.00678 104.51 2.44272C102.943 0.878674 100.818 0 98.6022 0L8.35463 0C6.13884 0 4.01381 0.878674 2.44701 2.44272C0.880217 4.00678 0 6.12808 0 8.33998L0 63.8404C0 66.0523 0.880217 68.1736 2.44701 69.7376C4.01381 71.3017 6.13884 72.1804 8.35463 72.1804H83.6518V69.5467Z" fill="#D3D2D1"/>
<path d="M104.248 80.9768H96.4031C96.0533 80.9768 95.7177 80.8381 95.4704 80.5911C95.223 80.3442 95.084 80.0092 95.084 79.66C95.084 79.3107 95.223 78.9758 95.4704 78.7288C95.7177 78.4819 96.0533 78.3431 96.4031 78.3431H104.248C104.598 78.3431 104.933 78.4819 105.18 78.7288C105.428 78.9758 105.567 79.3107 105.567 79.66C105.567 80.0092 105.428 80.3442 105.18 80.5911C104.933 80.8381 104.598 80.9768 104.248 80.9768Z" fill="#D3D2D1"/>
<path d="M42.2128 56.7295C42.2128 56.9577 42.2128 57.2035 42.2128 57.4318H30.9033C30.912 57.268 30.912 57.1039 30.9033 56.9402C30.8341 55.8719 30.3602 54.8699 29.5778 54.1377C28.7954 53.4056 27.7632 52.9981 26.6908 52.9981C25.6184 52.9981 24.5862 53.4056 23.8038 54.1377C23.0214 54.8699 22.5475 55.8719 22.4783 56.9402C22.4696 57.1039 22.4696 57.268 22.4783 57.4318H11.5029C11.5029 57.2035 11.5029 56.9577 11.5029 56.7295C11.5029 47.4238 17.0785 39.8915 26.8227 39.8915C36.5668 39.8915 42.2128 47.4062 42.2128 56.7295Z" fill="#A3FFD3"/>
<path d="M109.912 71.8643C109.912 72.0048 109.912 72.1628 109.912 72.3032H102.877C102.885 72.1981 102.885 72.0924 102.877 71.9872C102.877 71.2887 102.599 70.6188 102.104 70.1249C101.609 69.631 100.938 69.3535 100.238 69.3535C99.5387 69.3535 98.8676 69.631 98.3728 70.1249C97.878 70.6188 97.6001 71.2887 97.6001 71.9872C97.6001 72.0926 97.6001 72.1979 97.6001 72.3032H90.758C90.7493 72.1571 90.7493 72.0105 90.758 71.8643C90.758 66.0351 94.2758 61.3296 100.344 61.3296C106.412 61.3296 109.912 66.0351 109.912 71.8643Z" fill="#A3FFD3"/>
<path d="M62.0178 46.4405C59.5402 46.4405 57.1183 45.7069 55.0585 44.3325C52.9987 42.958 51.3935 41.0046 50.4462 38.7192C49.4989 36.4339 49.2519 33.9195 49.7366 31.494C50.2212 29.0685 51.4157 26.841 53.1688 25.0934C54.922 23.3458 57.155 22.1566 59.5854 21.6762C62.0158 21.1958 64.5344 21.4459 66.8224 22.3948C69.1104 23.3436 71.065 24.9487 72.439 27.0068C73.8129 29.0649 74.5444 31.4836 74.5409 33.9569C74.5409 35.5977 74.2169 37.2225 73.5873 38.7382C72.9578 40.2539 72.035 41.6309 70.8719 42.7903C69.7088 43.9498 68.3281 44.869 66.8088 45.4953C65.2896 46.1216 63.6615 46.4428 62.0178 46.4405Z" fill="#F9D7C8"/>
<path d="M100.255 55.2897C98.939 55.2932 97.6512 54.9065 96.5551 54.1785C95.4591 53.4506 94.6042 52.4142 94.0988 51.2008C93.5934 49.9873 93.4603 48.6514 93.7163 47.3624C93.9722 46.0733 94.6058 44.8891 95.5367 43.9599C96.4675 43.0306 97.6538 42.3982 98.9451 42.1427C100.236 41.8871 101.575 42.0201 102.79 42.5246C104.006 43.0291 105.044 43.8824 105.773 44.9766C106.502 46.0707 106.89 47.3563 106.886 48.6704C106.886 50.426 106.188 52.1096 104.944 53.351C103.701 54.5923 102.014 55.2897 100.255 55.2897Z" fill="#F9D7C8"/>
</svg>
