<svg width="100" height="75" viewBox="0 0 100 75" fill="none" xmlns="http://www.w3.org/2000/svg">
<g clip-path="url(#clip0)">
<path d="M93.6256 74.2068H76.7014C75.2326 74.2068 73.824 73.626 72.7854 72.5922C71.7468 71.5584 71.1633 70.1562 71.1633 68.6942V34.8835C71.1672 33.4226 71.7519 32.0227 72.7897 30.9897C73.8274 29.9568 75.2338 29.3747 76.7014 29.3708H93.6256C95.0932 29.3747 96.4995 29.9568 97.5373 30.9897C98.575 32.0227 99.1597 33.4226 99.1636 34.8835V68.6942C99.1636 70.1562 98.5802 71.5584 97.5416 72.5922C96.503 73.626 95.0944 74.2068 93.6256 74.2068ZM76.7014 31.5759C75.8201 31.5759 74.9749 31.9244 74.3518 32.5447C73.7286 33.1649 73.3785 34.0062 73.3785 34.8835V68.6942C73.3785 69.5714 73.7286 70.4127 74.3518 71.033C74.9749 71.6533 75.8201 72.0018 76.7014 72.0018H93.6256C94.5017 71.994 95.3393 71.6421 95.9561 71.0227C96.5729 70.4032 96.9189 69.5663 96.9189 68.6942V34.8835C96.9189 34.0062 96.5688 33.1649 95.9456 32.5447C95.3225 31.9244 94.4773 31.5759 93.5961 31.5759H76.7014Z" fill="#D3D2D1"/>
<path d="M45.9545 71.6342C45.662 71.6303 45.3825 71.513 45.1756 71.307C44.9687 71.1011 44.8507 70.8229 44.8469 70.5316V63.9165C44.8469 63.6241 44.9636 63.3436 45.1713 63.1369C45.379 62.9301 45.6608 62.814 45.9545 62.814C46.2483 62.814 46.53 62.9301 46.7377 63.1369C46.9454 63.3436 47.0621 63.6241 47.0621 63.9165V70.5316C47.0583 70.8229 46.9404 71.1011 46.7335 71.307C46.5266 71.513 46.2471 71.6303 45.9545 71.6342Z" fill="#D3D2D1"/>
<path d="M67.117 73.1042H24.5554C24.2616 73.1042 23.9799 72.9881 23.7722 72.7813C23.5644 72.5745 23.4478 72.2941 23.4478 72.0017C23.4478 71.7093 23.5644 71.4289 23.7722 71.2221C23.9799 71.0153 24.2616 70.8992 24.5554 70.8992H67.117C67.4107 70.8992 67.6925 71.0153 67.9002 71.2221C68.1079 71.4289 68.2246 71.7093 68.2246 72.0017C68.2246 72.2941 68.1079 72.5745 67.9002 72.7813C67.6925 72.9881 67.4107 73.1042 67.117 73.1042Z" fill="#D3D2D1"/>
<path d="M71.1635 58.7567H7.94135C6.66841 58.7567 5.44761 58.2534 4.5475 57.3574C3.6474 56.4614 3.14173 55.2462 3.14173 53.9791V51.0391H71.1635V48.834H3.14173V7.51146C3.14562 6.24555 3.65255 5.0326 4.55181 4.13747C5.45107 3.24233 6.66961 2.73773 7.94135 2.73386H83.7164C84.9893 2.73386 86.2101 3.23721 87.1102 4.13318C88.0103 5.02916 88.516 6.24436 88.516 7.51146V29.2826H90.7312V7.51146C90.7312 5.65954 89.9922 3.88348 88.6766 2.57398C87.3611 1.26448 85.5768 0.528809 83.7164 0.528809L7.94135 0.528809C6.0809 0.528809 4.29665 1.26448 2.98111 2.57398C1.66557 3.88348 0.926514 5.65954 0.926514 7.51146L0.926514 53.9791C0.926514 55.8311 1.66557 57.6071 2.98111 58.9166C4.29665 60.2261 6.0809 60.9618 7.94135 60.9618H71.1635V58.7567Z" fill="#D3D2D1"/>
<path d="M88.4566 68.3266H81.8701C81.5763 68.3266 81.2946 68.2105 81.0869 68.0037C80.8791 67.7969 80.7625 67.5165 80.7625 67.2241C80.7625 66.9317 80.8791 66.6513 81.0869 66.4445C81.2946 66.2377 81.5763 66.1216 81.8701 66.1216H88.4566C88.7504 66.1216 89.0321 66.2377 89.2398 66.4445C89.4475 66.6513 89.5642 66.9317 89.5642 67.2241C89.5642 67.5165 89.4475 67.7969 89.2398 68.0037C89.0321 68.2105 88.7504 68.3266 88.4566 68.3266Z" fill="#D3D2D1"/>
<path d="M36.37 48.0256C36.37 48.2167 36.37 48.4225 36.37 48.6136H26.8742C26.8815 48.4765 26.8815 48.3391 26.8742 48.202C26.8161 47.3075 26.4182 46.4687 25.7612 45.8557C25.1043 45.2427 24.2376 44.9015 23.3372 44.9015C22.4368 44.9015 21.5701 45.2427 20.9132 45.8557C20.2562 46.4687 19.8583 47.3075 19.8002 48.202C19.7929 48.3391 19.7929 48.4765 19.8002 48.6136H10.585C10.585 48.4225 10.585 48.2167 10.585 48.0256C10.585 40.2344 15.2664 33.928 23.448 33.928C31.6295 33.928 36.37 40.2197 36.37 48.0256Z" fill="#040028"/>
<path d="M93.2125 60.6971C93.2125 60.8147 93.2125 60.947 93.2125 61.0646H87.3053C87.3125 60.9766 87.3125 60.8881 87.3053 60.8C87.3053 60.2152 87.0719 59.6544 86.6564 59.2408C86.241 58.8273 85.6776 58.595 85.09 58.595C84.5025 58.595 83.9391 58.8273 83.5236 59.2408C83.1082 59.6544 82.8748 60.2152 82.8748 60.8C82.8748 60.8882 82.8748 60.9764 82.8748 61.0646H77.13C77.1227 60.9423 77.1227 60.8195 77.13 60.6971C77.13 55.8166 80.0837 51.877 85.1786 51.877C90.2736 51.877 93.2125 55.8166 93.2125 60.6971Z" fill="#040028"/>
<path d="M52.9985 39.411C50.9182 39.411 48.8847 38.7968 47.1552 37.6461C45.4257 36.4953 44.078 34.8598 43.2826 32.9464C42.4872 31.033 42.2799 28.9278 42.6868 26.8971C43.0937 24.8663 44.0966 23.0014 45.5686 21.5382C47.0406 20.075 48.9156 19.0793 50.9562 18.6771C52.9969 18.2749 55.1115 18.4843 57.0326 19.2787C58.9537 20.0732 60.5949 21.417 61.7485 23.1402C62.9021 24.8633 63.5163 26.8884 63.5134 28.9591C63.5134 30.3329 63.2413 31.6932 62.7127 32.9623C62.1841 34.2313 61.4093 35.3842 60.4328 36.3549C59.4562 37.3257 58.2969 38.0953 57.0213 38.6196C55.7456 39.144 54.3786 39.413 52.9985 39.411Z" fill="#F9D7C8"/>
<path d="M85.1047 46.8202C83.9993 46.8231 82.918 46.4993 81.9977 45.8899C81.0775 45.2804 80.3597 44.4127 79.9353 43.3967C79.511 42.3808 79.3992 41.2623 79.6141 40.183C79.829 39.1038 80.361 38.1123 81.1426 37.3343C81.9242 36.5563 82.9202 36.0268 84.0045 35.8128C85.0887 35.5989 86.2124 35.7102 87.233 36.1326C88.2536 36.555 89.1253 37.2695 89.7376 38.1855C90.3499 39.1016 90.6752 40.1779 90.6722 41.2782C90.6722 42.748 90.0857 44.1577 89.0415 45.197C87.9974 46.2363 86.5813 46.8202 85.1047 46.8202Z" fill="#F9D7C8"/>
</g>
<defs>
<clipPath id="clip0">
<rect width="98.2373" height="73.678" fill="white" transform="translate(0.926514 0.528809)"/>
</clipPath>
</defs>
</svg>
