<svg width="110" height="75" viewBox="0 0 110 75" fill="none" xmlns="http://www.w3.org/2000/svg">
<g clip-path="url(#clip0)">
<path d="M87.5952 31.0462H60.8689C60.5648 31.0462 60.2731 30.9252 60.058 30.7099C59.843 30.4945 59.7222 30.2024 59.7222 29.8979C59.7222 29.5933 59.843 29.3012 60.058 29.0859C60.2731 28.8705 60.5648 28.7495 60.8689 28.7495H87.5952C87.8994 28.7495 88.191 28.8705 88.4061 29.0859C88.6211 29.3012 88.7419 29.5933 88.7419 29.8979C88.7419 30.2024 88.6211 30.4945 88.4061 30.7099C88.191 30.9252 87.8994 31.0462 87.5952 31.0462Z" fill="#040028"/>
<path d="M87.5952 39.2379H60.8689C60.5648 39.2379 60.2731 39.1169 60.058 38.9015C59.843 38.6862 59.7222 38.3941 59.7222 38.0895C59.7222 37.785 59.843 37.4929 60.058 37.2775C60.2731 37.0621 60.5648 36.9412 60.8689 36.9412H87.5952C87.8994 36.9412 88.191 37.0621 88.4061 37.2775C88.6211 37.4929 88.7419 37.785 88.7419 38.0895C88.7419 38.3941 88.6211 38.6862 88.4061 38.9015C88.191 39.1169 87.8994 39.2379 87.5952 39.2379Z" fill="#040028"/>
<path d="M87.5952 47.4753H60.8689C60.5648 47.4753 60.2731 47.3543 60.058 47.139C59.843 46.9236 59.7222 46.6315 59.7222 46.3269C59.7222 46.0224 59.843 45.7303 60.058 45.5149C60.2731 45.2996 60.5648 45.1786 60.8689 45.1786H87.5952C87.8994 45.1786 88.191 45.2996 88.4061 45.5149C88.6211 45.7303 88.7419 46.0224 88.7419 46.3269C88.7419 46.6315 88.6211 46.9236 88.4061 47.139C88.191 47.3543 87.8994 47.4753 87.5952 47.4753Z" fill="#040028"/>
<path d="M42.3379 17.3579H20.229C19.9249 17.3579 19.6332 17.2369 19.4181 17.0215C19.2031 16.8062 19.0823 16.5141 19.0823 16.2095C19.0823 15.9049 19.2031 15.6129 19.4181 15.3975C19.6332 15.1821 19.9249 15.0612 20.229 15.0612H42.3379C42.642 15.0612 42.9337 15.1821 43.1487 15.3975C43.3638 15.6129 43.4846 15.9049 43.4846 16.2095C43.4846 16.5141 43.3638 16.8062 43.1487 17.0215C42.9337 17.2369 42.642 17.3579 42.3379 17.3579Z" fill="#040028"/>
<path d="M40.3655 25.5494H20.229C19.9249 25.5494 19.6332 25.4284 19.4181 25.2131C19.2031 24.9977 19.0823 24.7056 19.0823 24.401C19.0823 24.0965 19.2031 23.8044 19.4181 23.589C19.6332 23.3737 19.9249 23.2527 20.229 23.2527H40.3655C40.6696 23.2527 40.9613 23.3737 41.1763 23.589C41.3914 23.8044 41.5122 24.0965 41.5122 24.401C41.5122 24.7056 41.3914 24.9977 41.1763 25.2131C40.9613 25.4284 40.6696 25.5494 40.3655 25.5494Z" fill="#040028"/>
<path d="M40.87 33.6952H20.229C19.9249 33.6952 19.6332 33.5742 19.4181 33.3588C19.2031 33.1434 19.0823 32.8514 19.0823 32.5468C19.0823 32.2422 19.2031 31.9501 19.4181 31.7348C19.6332 31.5194 19.9249 31.3984 20.229 31.3984H40.87C41.1742 31.3984 41.4658 31.5194 41.6809 31.7348C41.8959 31.9501 42.0168 32.2422 42.0168 32.5468C42.0168 32.8514 41.8959 33.1434 41.6809 33.3588C41.4658 33.5742 41.1742 33.6952 40.87 33.6952Z" fill="#040028"/>
<path d="M0.75 59.0508V4.84841C0.754032 3.56643 1.26436 2.33811 2.16958 1.43161C3.07479 0.525103 4.30137 0.0140475 5.58153 0.0100098L64.9666 0.0100098C66.2494 0.0100034 67.4799 0.519273 68.3884 1.42621C69.2969 2.33315 69.8094 3.56378 69.8134 4.84841V16.3473H45.3499C44.47 16.3473 43.6261 16.6973 43.0039 17.3204C42.3816 17.9435 42.0321 18.7886 42.0321 19.6698V47.8122H12.2478L0.75 59.0508ZM5.58153 1.54115C4.70564 1.54115 3.86562 1.88959 3.24627 2.50982C2.62691 3.13006 2.27897 3.97127 2.27897 4.84841V55.376L11.6209 46.1892H40.5031V19.6698C40.5031 18.3852 41.0117 17.153 41.9173 16.2432C42.823 15.3333 44.0518 14.8202 45.3347 14.8161H68.2691V4.84841C68.2651 3.97251 67.9159 3.13364 67.2974 2.51427C66.6789 1.89491 65.8412 1.54518 64.9666 1.54115H5.58153Z" fill="#D3D2D1"/>
<path d="M109.75 74.01L98.2522 62.7868H45.5029C44.2228 62.7827 42.9962 62.2717 42.091 61.3652C41.1857 60.4587 40.6754 59.2304 40.6714 57.9484V19.8077C40.6714 18.5231 41.1799 17.2908 42.0856 16.381C42.9912 15.4712 44.2201 14.958 45.5029 14.954H104.903C106.189 14.954 107.422 15.4654 108.33 16.3756C109.239 17.2858 109.75 18.5204 109.75 19.8077V74.01ZM45.5335 16.4851C44.6562 16.4892 43.8162 16.841 43.1973 17.4637C42.5784 18.0863 42.2309 18.9291 42.2309 19.8077V57.9178C42.2269 58.3521 42.3083 58.7829 42.4706 59.1857C42.6328 59.5886 42.8727 59.9554 43.1766 60.2654C43.4804 60.5753 43.8422 60.8223 44.2414 60.9922C44.6405 61.1621 45.0692 61.2516 45.5029 61.2556H98.8791L108.221 70.4425V19.9149C108.221 19.0337 107.872 18.1886 107.249 17.5655C106.627 16.9424 105.783 16.5923 104.903 16.5923L45.5335 16.4851Z" fill="#D3D2D1"/>
<path d="M43.5611 22.135C42.0242 22.135 40.5219 21.6784 39.2443 20.8231C37.9667 19.9677 36.9711 18.752 36.3837 17.3298C35.7963 15.9077 35.6434 14.343 35.9443 12.8337C36.2453 11.3245 36.9865 9.93857 38.0743 8.85138C39.1621 7.76419 40.5475 7.0246 42.0552 6.72621C43.5629 6.42782 45.1251 6.58404 46.5441 7.1751C47.963 7.76616 49.175 8.76549 50.0267 10.0466C50.8783 11.3278 51.3313 12.8331 51.3282 14.3721C51.3282 15.3928 51.1272 16.4036 50.7367 17.3464C50.3462 18.2892 49.7738 19.1457 49.0524 19.8667C48.3309 20.5878 47.4746 21.1593 46.5323 21.5485C45.59 21.9377 44.5804 22.137 43.5611 22.135Z" fill="#F9D7C8"/>
</g>
<defs>
<clipPath id="clip0">
<rect width="109" height="74" fill="white" transform="translate(0.75 0.0100098)"/>
</clipPath>
</defs>
</svg>
