<svg width="125" height="85" viewBox="0 0 125 85" fill="none" xmlns="http://www.w3.org/2000/svg">
<path d="M99.5934 35.6497H68.944C68.5952 35.6497 68.2607 35.5107 68.0141 35.2634C67.7675 35.016 67.6289 34.6805 67.6289 34.3307C67.6289 33.9808 67.7675 33.6453 68.0141 33.3979C68.2607 33.1506 68.5952 33.0116 68.944 33.0116H99.5934C99.9422 33.0116 100.277 33.1506 100.523 33.3979C100.77 33.6453 100.908 33.9808 100.908 34.3307C100.908 34.6805 100.77 35.016 100.523 35.2634C100.277 35.5107 99.9422 35.6497 99.5934 35.6497Z" fill="#D3D2D1"/>
<path d="M99.5934 45.059H68.944C68.5952 45.059 68.2607 44.92 68.0141 44.6726C67.7675 44.4252 67.6289 44.0897 67.6289 43.7399C67.6289 43.3901 67.7675 43.0546 68.0141 42.8072C68.2607 42.5598 68.5952 42.4208 68.944 42.4208H99.5934C99.9422 42.4208 100.277 42.5598 100.523 42.8072C100.77 43.0546 100.908 43.3901 100.908 43.7399C100.908 44.0897 100.77 44.4252 100.523 44.6726C100.277 44.92 99.9422 45.059 99.5934 45.059Z" fill="#D3D2D1"/>
<path d="M99.5934 54.521H68.944C68.5952 54.521 68.2607 54.382 68.0141 54.1346C67.7675 53.8873 67.6289 53.5518 67.6289 53.2019C67.6289 52.8521 67.7675 52.5166 68.0141 52.2692C68.2607 52.0218 68.5952 51.8829 68.944 51.8829H99.5934C99.9422 51.8829 100.277 52.0218 100.523 52.2692C100.77 52.5166 100.908 52.8521 100.908 53.2019C100.908 53.5518 100.77 53.8873 100.523 54.1346C100.277 54.382 99.9422 54.521 99.5934 54.521Z" fill="#D3D2D1"/>
<path d="M47.6927 19.9266H22.3385C21.9897 19.9266 21.6552 19.7876 21.4086 19.5402C21.162 19.2928 21.0234 18.9573 21.0234 18.6075C21.0234 18.2577 21.162 17.9222 21.4086 17.6748C21.6552 17.4274 21.9897 17.2885 22.3385 17.2885H47.6927C48.0415 17.2885 48.3759 17.4274 48.6226 17.6748C48.8692 17.9222 49.0077 18.2577 49.0077 18.6075C49.0077 18.9573 48.8692 19.2928 48.6226 19.5402C48.3759 19.7876 48.0415 19.9266 47.6927 19.9266Z" fill="#D3D2D1"/>
<path d="M45.4308 29.3358H22.3385C21.9897 29.3358 21.6552 29.1968 21.4086 28.9495C21.162 28.7021 21.0234 28.3666 21.0234 28.0167C21.0234 27.6669 21.162 27.3314 21.4086 27.084C21.6552 26.8367 21.9897 26.6977 22.3385 26.6977H45.4308C45.7796 26.6977 46.114 26.8367 46.3607 27.084C46.6073 27.3314 46.7458 27.6669 46.7458 28.0167C46.7458 28.3666 46.6073 28.7021 46.3607 28.9495C46.114 29.1968 45.7796 29.3358 45.4308 29.3358Z" fill="#D3D2D1"/>
<path d="M46.0094 38.6923H22.3385C21.9897 38.6923 21.6552 38.5533 21.4086 38.306C21.162 38.0586 21.0234 37.7231 21.0234 37.3733C21.0234 37.0234 21.162 36.6879 21.4086 36.4405C21.6552 36.1932 21.9897 36.0542 22.3385 36.0542H46.0094C46.3582 36.0542 46.6927 36.1932 46.9393 36.4405C47.1859 36.6879 47.3245 37.0234 47.3245 37.3733C47.3245 37.7231 47.1859 38.0586 46.9393 38.306C46.6927 38.5533 46.3582 38.6923 46.0094 38.6923Z" fill="#D3D2D1"/>
<path d="M0 67.8171V5.55762C0.00462389 4.08508 0.589864 2.67417 1.62796 1.63291C2.66605 0.591661 4.07267 0.00463798 5.54075 0L73.6429 0C75.114 -7.34203e-06 76.5251 0.584964 77.567 1.62672C78.6089 2.66847 79.1965 4.08204 79.2011 5.55762V18.7658H51.1467C50.1376 18.7658 49.1698 19.1679 48.4563 19.8836C47.7427 20.5993 47.3418 21.5701 47.3418 22.5822V54.9079H13.1856L0 67.8171ZM5.54075 1.75874C4.53628 1.75874 3.57296 2.15898 2.86269 2.87141C2.15242 3.58384 1.7534 4.5501 1.7534 5.55762V63.5961L12.4667 53.0437H45.5884V22.5822C45.5884 21.1066 46.1716 19.6912 47.2102 18.6462C48.2488 17.6011 49.6581 17.0117 51.1292 17.007H77.4302V5.55762C77.4256 4.55152 77.0251 3.58795 76.3158 2.87652C75.6066 2.16509 74.6459 1.76337 73.6429 1.75874H5.54075Z" fill="#D3D2D1"/>
<path d="M125 85L111.814 72.1084H51.322C49.8539 72.1038 48.4473 71.5168 47.4092 70.4755C46.3711 69.4343 45.7859 68.0234 45.7813 66.5508V22.7406C45.7812 21.265 46.3644 19.8495 47.403 18.8045C48.4416 17.7594 49.8509 17.17 51.322 17.1653H119.442C120.916 17.1653 122.33 17.7527 123.372 18.7983C124.414 19.8438 125 21.2619 125 22.7406V85ZM51.3571 18.9241C50.351 18.9287 49.3877 19.3329 48.6779 20.0481C47.9682 20.7633 47.5697 21.7314 47.5697 22.7406V66.5156C47.5651 67.0145 47.6585 67.5094 47.8445 67.9721C48.0306 68.4348 48.3057 68.8562 48.6542 69.2122C49.0026 69.5682 49.4175 69.8519 49.8753 70.0471C50.333 70.2423 50.8246 70.3451 51.322 70.3497H112.533L123.247 80.9021V22.8637C123.247 21.8515 122.846 20.8807 122.132 20.165C121.419 19.4493 120.451 19.0472 119.442 19.0472L51.3571 18.9241Z" fill="#D3D2D1"/>
<path d="M49.0953 25.4138C47.3328 25.4138 45.61 24.8894 44.1448 23.9069C42.6796 22.9243 41.538 21.5279 40.8643 19.8944C40.1907 18.2608 40.0153 16.4635 40.3604 14.7299C40.7055 12.9963 41.5556 11.4044 42.8031 10.1556C44.0505 8.9068 45.6393 8.05727 47.3683 7.71452C49.0973 7.37177 50.8888 7.55122 52.5161 8.23014C54.1434 8.90906 55.5333 10.0569 56.5099 11.5285C57.4865 13.0001 58.006 14.7292 58.0025 16.497C58.0025 17.6694 57.772 18.8304 57.3242 19.9134C56.8763 20.9964 56.2199 21.9801 55.3926 22.8084C54.5652 23.6366 53.5832 24.293 52.5026 24.7401C51.422 25.1872 50.2641 25.4161 49.0953 25.4138Z" fill="#F9D7C8"/>
</svg>
