<svg width="96" height="73" viewBox="0 0 96 73" fill="none" xmlns="http://www.w3.org/2000/svg">
<g clip-path="url(#clip0)">
<path d="M89.8904 72.09H73.5424C72.1236 72.09 70.7629 71.5289 69.7597 70.5303C68.7565 69.5317 68.1929 68.1773 68.1929 66.765V34.1054C68.1966 32.6943 68.7614 31.3421 69.7639 30.3443C70.7663 29.3465 72.1247 28.7843 73.5424 28.7805H89.8904C91.308 28.7843 92.6664 29.3465 93.6689 30.3443C94.6713 31.3421 95.2361 32.6943 95.2398 34.1054V66.765C95.2398 68.1773 94.6762 69.5317 93.673 70.5303C92.6698 71.5289 91.3091 72.09 89.8904 72.09ZM73.5424 30.9105C72.6911 30.9105 71.8747 31.2471 71.2728 31.8463C70.6708 32.4454 70.3327 33.2581 70.3327 34.1054V66.765C70.3327 67.6124 70.6708 68.425 71.2728 69.0242C71.8747 69.6234 72.6911 69.96 73.5424 69.96H89.8904C90.7367 69.9525 91.5458 69.6126 92.1415 69.0142C92.7373 68.4159 93.0716 67.6075 93.0715 66.765V34.1054C93.0715 33.2581 92.7334 32.4454 92.1314 31.8463C91.5295 31.2471 90.7131 30.9105 89.8618 30.9105H73.5424Z" fill="#D3D2D1"/>
<path d="M43.8424 69.605C43.5598 69.6013 43.2898 69.4879 43.0899 69.289C42.8901 69.09 42.7762 68.8213 42.7725 68.54V62.1501C42.7725 61.8676 42.8852 61.5967 43.0858 61.397C43.2865 61.1973 43.5586 61.0851 43.8424 61.0851C44.1261 61.0851 44.3982 61.1973 44.5989 61.397C44.7995 61.5967 44.9123 61.8676 44.9123 62.1501V68.54C44.9086 68.8213 44.7947 69.09 44.5948 69.289C44.395 69.4879 44.125 69.6013 43.8424 69.605Z" fill="#D3D2D1"/>
<path d="M64.2845 71.0249H23.1719C22.8882 71.0249 22.6161 70.9127 22.4154 70.7129C22.2148 70.5132 22.1021 70.2423 22.1021 69.9599C22.1021 69.6774 22.2148 69.4065 22.4154 69.2068C22.6161 69.0071 22.8882 68.8949 23.1719 68.8949H64.2845C64.5682 68.8949 64.8404 69.0071 65.041 69.2068C65.2417 69.4065 65.3544 69.6774 65.3544 69.9599C65.3544 70.2423 65.2417 70.5132 65.041 70.7129C64.8404 70.9127 64.5682 71.0249 64.2845 71.0249Z" fill="#D3D2D1"/>
<path d="M68.1931 57.1659H7.12342C5.89382 57.1659 4.71458 56.6797 3.84512 55.8142C2.97566 54.9487 2.4872 53.7749 2.4872 52.551V49.711H68.1931V47.581H2.4872V7.66533C2.49097 6.44252 2.98063 5.27086 3.84928 4.40621C4.71792 3.54155 5.89498 3.05413 7.12342 3.05038H80.3186C81.5482 3.05038 82.7274 3.5366 83.5969 4.40207C84.4663 5.26754 84.9548 6.44137 84.9548 7.66533V28.6953H87.0946V7.66533C87.0946 5.87646 86.3807 4.16087 85.11 2.89595C83.8392 1.63103 82.1157 0.92041 80.3186 0.92041L7.12342 0.92041C5.32631 0.92041 3.60281 1.63103 2.33206 2.89595C1.06131 4.16087 0.347412 5.87646 0.347412 7.66533L0.347412 52.551C0.347412 54.3398 1.06131 56.0554 2.33206 57.3203C3.60281 58.5853 5.32631 59.2959 7.12342 59.2959H68.1931V57.1659Z" fill="#D3D2D1"/>
<path d="M84.8975 66.41H78.5352C78.2515 66.41 77.9793 66.2978 77.7787 66.0981C77.5781 65.8984 77.4653 65.6275 77.4653 65.345C77.4653 65.0626 77.5781 64.7917 77.7787 64.592C77.9793 64.3922 78.2515 64.28 78.5352 64.28H84.8975C85.1813 64.28 85.4534 64.3922 85.6541 64.592C85.8547 64.7917 85.9674 65.0626 85.9674 65.345C85.9674 65.6275 85.8547 65.8984 85.6541 66.0981C85.4534 66.2978 85.1813 66.41 84.8975 66.41Z" fill="#D3D2D1"/>
<path d="M9.34864 26.5937C9.34864 24.507 9.97027 22.4672 11.1349 20.7322C12.2996 18.9971 13.9549 17.6449 15.8916 16.8463C17.8284 16.0478 19.9595 15.8388 22.0155 16.2459C24.0716 16.653 25.9601 17.6579 27.4424 19.1334C28.9248 20.6089 29.9342 22.4888 30.3432 24.5354C30.7522 26.582 30.5423 28.7033 29.74 30.6312C28.9378 32.559 27.5793 34.2068 25.8363 35.3661C24.0933 36.5254 22.0441 37.1441 19.9477 37.1441C18.5553 37.146 17.1762 36.8744 15.8894 36.3448C14.6026 35.8153 13.4335 35.0382 12.4489 34.0582C11.4643 33.0781 10.6836 31.9143 10.1516 30.6334C9.61964 29.3525 9.34676 27.9797 9.34864 26.5937Z" fill="#F9D7C8"/>
<path d="M76.6951 40.4669C76.6951 39.4759 76.9911 38.5073 77.5454 37.6841C78.0998 36.861 78.8874 36.2204 79.8083 35.8438C80.7291 35.4673 81.7417 35.3716 82.7172 35.5692C83.6928 35.7667 84.5874 36.2484 85.2873 36.9531C85.9873 37.6578 86.4609 38.5537 86.6482 39.527C86.8355 40.5003 86.7278 41.5071 86.339 42.4193C85.9502 43.3316 85.2977 44.1083 84.4645 44.6506C83.6313 45.1929 82.6549 45.4765 81.6594 45.4652C80.3387 45.4466 79.0783 44.9122 78.1497 43.9773C77.2211 43.0423 76.6987 41.7816 76.6951 40.4669Z" fill="#F9D7C8"/>
<path d="M37.8938 18.9825H62.8438" stroke="#040028" stroke-width="1.5" stroke-linecap="round" stroke-linejoin="round"/>
<path d="M37.8938 26.5936H62.8438" stroke="#040028" stroke-width="1.5" stroke-linecap="round" stroke-linejoin="round"/>
<path d="M37.8938 34.1906H62.8438" stroke="#040028" stroke-width="1.5" stroke-linecap="round" stroke-linejoin="round"/>
<path d="M74.627 51.6138H88.7496" stroke="#040028" stroke-width="1.5" stroke-linecap="round" stroke-linejoin="round"/>
<path d="M74.627 57.7765H88.7496" stroke="#040028" stroke-width="1.5" stroke-linecap="round" stroke-linejoin="round"/>
</g>
<defs>
<clipPath id="clip0">
<rect width="94.8927" height="71.1695" fill="white" transform="translate(0.347412 0.92041)"/>
</clipPath>
</defs>
</svg>
