<svg width="117" height="88" viewBox="0 0 117 88" fill="none" xmlns="http://www.w3.org/2000/svg">
<path d="M110.404 88H90.2471C88.4978 88 86.8202 87.3063 85.5832 86.0715C84.3463 84.8368 83.6514 83.162 83.6514 81.4158V41.0327C83.656 39.2879 84.3524 37.6159 85.5883 36.3821C86.8243 35.1483 88.4993 34.4532 90.2471 34.4485H110.404C112.152 34.4532 113.827 35.1483 115.063 36.3821C116.298 37.6159 116.995 39.2879 117 41.0327V81.4158C117 83.162 116.305 84.8368 115.068 86.0715C113.831 87.3063 112.153 88 110.404 88ZM90.2471 37.0822C89.1975 37.0822 88.1909 37.4984 87.4488 38.2393C86.7066 38.9801 86.2897 39.985 86.2897 41.0327V81.4158C86.2897 82.4635 86.7066 83.4684 87.4488 84.2092C88.1909 84.9501 89.1975 85.3663 90.2471 85.3663H110.404C111.447 85.3571 112.445 84.9368 113.179 84.1969C113.914 83.457 114.326 82.4575 114.326 81.4158V41.0327C114.326 39.985 113.909 38.9801 113.167 38.2393C112.425 37.4984 111.418 37.0822 110.369 37.0822H90.2471Z" fill="#D3D2D1"/>
<path d="M53.6282 84.9274C53.2798 84.9228 52.9469 84.7826 52.7005 84.5367C52.4541 84.2907 52.3136 83.9584 52.3091 83.6105V75.7095C52.3091 75.3603 52.4481 75.0253 52.6955 74.7784C52.9428 74.5314 53.2784 74.3927 53.6282 74.3927C53.9781 74.3927 54.3136 74.5314 54.561 74.7784C54.8084 75.0253 54.9474 75.3603 54.9474 75.7095V83.6105C54.9428 83.9584 54.8024 84.2907 54.556 84.5367C54.3096 84.7826 53.9767 84.9228 53.6282 84.9274Z" fill="#D3D2D1"/>
<path d="M78.8325 86.6831H28.1419C27.792 86.6831 27.4565 86.5444 27.2091 86.2975C26.9617 86.0505 26.8228 85.7156 26.8228 85.3663C26.8228 85.0171 26.9617 84.6821 27.2091 84.4352C27.4565 84.1882 27.792 84.0495 28.1419 84.0495H78.8325C79.1824 84.0495 79.5179 84.1882 79.7653 84.4352C80.0127 84.6821 80.1517 85.0171 80.1517 85.3663C80.1517 85.7156 80.0127 86.0505 79.7653 86.2975C79.5179 86.5444 79.1824 86.6831 78.8325 86.6831Z" fill="#D3D2D1"/>
<path d="M83.6518 69.5467H8.35463C6.83857 69.5467 5.3846 68.9455 4.31258 67.8754C3.24056 66.8052 2.6383 65.3538 2.6383 63.8404V60.3288H83.6518V57.6951H2.6383V8.33998C2.64294 6.828 3.24669 5.37927 4.3177 4.31013C5.38872 3.241 6.83999 2.63831 8.35463 2.63368H98.6022C100.118 2.63368 101.572 3.23488 102.644 4.30502C103.716 5.37516 104.319 6.82658 104.319 8.33998V34.3432H106.957V8.33998C106.957 6.12808 106.077 4.00678 104.51 2.44272C102.943 0.878674 100.818 0 98.6022 0L8.35463 0C6.13885 0 4.01381 0.878674 2.44701 2.44272C0.880217 4.00678 0 6.12808 0 8.33998L0 63.8404C0 66.0523 0.880217 68.1736 2.44701 69.7376C4.01381 71.3017 6.13885 72.1804 8.35463 72.1804H83.6518V69.5467Z" fill="#D3D2D1"/>
<path d="M104.248 80.9769H96.4036C96.0538 80.9769 95.7182 80.8381 95.4708 80.5912C95.2235 80.3442 95.0845 80.0093 95.0845 79.66C95.0845 79.3108 95.2235 78.9758 95.4708 78.7289C95.7182 78.4819 96.0538 78.3432 96.4036 78.3432H104.248C104.598 78.3432 104.934 78.4819 105.181 78.7289C105.428 78.9758 105.567 79.3108 105.567 79.66C105.567 80.0093 105.428 80.3442 105.181 80.5912C104.934 80.8381 104.598 80.9769 104.248 80.9769Z" fill="#D3D2D1"/>
<path d="M11.0982 31.7446C11.0982 29.1645 11.8646 26.6423 13.3006 24.4969C14.7366 22.3516 16.7776 20.6795 19.1655 19.6922C21.5534 18.7048 24.1811 18.4464 26.7161 18.9498C29.2511 19.4532 31.5797 20.6956 33.4073 22.5201C35.235 24.3445 36.4796 26.669 36.9839 29.1996C37.4881 31.7302 37.2293 34.3532 36.2402 36.7369C35.2511 39.1207 33.5761 41.1581 31.427 42.5916C29.2779 44.025 26.7512 44.7901 24.1666 44.7901C22.4497 44.7924 20.7493 44.4566 19.1628 43.8018C17.5762 43.147 16.1346 42.1862 14.9206 40.9743C13.7067 39.7625 12.7441 38.3234 12.0882 36.7396C11.4323 35.1559 11.0958 33.4584 11.0982 31.7446Z" fill="#F9D7C8"/>
<path d="M94.1343 48.8987C94.1344 47.6733 94.4993 46.4757 95.1828 45.4578C95.8662 44.44 96.8374 43.648 97.9728 43.1823C99.1082 42.7167 100.357 42.5985 101.559 42.8427C102.762 43.0869 103.865 43.6825 104.728 44.5539C105.591 45.4253 106.175 46.5331 106.406 47.7366C106.637 48.94 106.504 50.1848 106.025 51.3129C105.546 52.4409 104.741 53.4012 103.714 54.0718C102.686 54.7423 101.483 55.093 100.255 55.079C98.6268 55.056 97.0727 54.3953 95.9278 53.2392C94.7828 52.0831 94.1387 50.5243 94.1343 48.8987Z" fill="#F9D7C8"/>
<path d="M46.2935 22.3336H77.0561" stroke="#A3FFD3" stroke-width="1.5" stroke-linecap="round" stroke-linejoin="round"/>
<path d="M46.2935 31.7446H77.0561" stroke="#A3FFD3" stroke-width="1.5" stroke-linecap="round" stroke-linejoin="round"/>
<path d="M46.2935 41.1381H77.0561" stroke="#A3FFD3" stroke-width="1.5" stroke-linecap="round" stroke-linejoin="round"/>
<path d="M91.5845 62.6816H108.997" stroke="#A3FFD3" stroke-width="1.5" stroke-linecap="round" stroke-linejoin="round"/>
<path d="M91.5845 70.3017H108.997" stroke="#A3FFD3" stroke-width="1.5" stroke-linecap="round" stroke-linejoin="round"/>
</svg>
