<svg width="26" height="24" viewBox="0 0 26 24" fill="none" xmlns="http://www.w3.org/2000/svg">
<path d="M13 23.5286C12.8485 23.5286 12.7014 23.4853 12.5711 23.3973C12.0558 23.0512 0 14.8051 0 7.29443C0 3.43391 3.19014 0.296875 7.10923 0.296875C9.51586 0.296875 11.6967 1.47084 13 3.3817C14.3018 1.47084 16.4841 0.296875 18.8877 0.296875C22.8099 0.296875 26 3.43541 26 7.29443C26 14.8051 13.9411 23.0512 13.4289 23.3973C13.2986 23.4853 13.1516 23.5286 13 23.5286ZM7.10923 1.78857C4.02518 1.78857 1.5155 4.25882 1.5155 7.29443C1.5155 13.291 10.8662 20.3348 13 21.8653C15.1338 20.3363 24.4845 13.2851 24.4845 7.29443C24.4845 4.25882 21.9748 1.78857 18.8877 1.78857C16.5963 1.78857 14.5625 3.14602 13.7017 5.24633C13.4713 5.81168 12.5272 5.81168 12.2953 5.24633C11.4375 3.14602 9.40068 1.78857 7.10923 1.78857Z" fill="#F9D7C8"/>
</svg>
