<svg width="235" height="119" viewBox="0 0 235 119" fill="none" xmlns="http://www.w3.org/2000/svg">
<path d="M235 3.72173C235 2.46525 234.871 1.24058 234.853 -6.43972e-09L148.963 -3.7608e-06C149.237 1.22887 149.415 2.47224 149.497 3.72173C149.497 19.1176 134.765 29.5035 116.46 29.5035C98.6702 29.5035 85.5768 18.0361 85.5768 3.72173C85.6442 2.47201 85.8165 1.22817 86.0924 -6.50896e-06L0.184158 -1.02641e-05C0.184158 1.24057 -1.07759e-07 2.46524 -1.62682e-07 3.72172C-2.76003e-06 63.1422 40.2378 119 114.765 119C193.51 119 235 66.3709 235 3.72173Z" fill="#F9D7C8"/>
</svg>
