<svg width="83" height="121" viewBox="0 0 83 121" fill="none" xmlns="http://www.w3.org/2000/svg">
<path d="M0.625732 10.162C0.625732 8.28347 1.18378 6.44707 2.22932 4.88509C3.27485 3.32311 4.76091 2.10569 6.49957 1.38679C8.23823 0.667884 10.1514 0.479787 11.9972 0.84628C13.8429 1.21277 15.5383 2.1174 16.8691 3.44575C18.1998 4.77411 19.106 6.46654 19.4731 8.30903C19.8403 10.1515 19.6519 12.0613 18.9317 13.7969C18.2115 15.5325 16.9919 17.0159 15.4272 18.0596C13.8624 19.1033 12.0228 19.6603 10.1409 19.6603C7.61728 19.6603 5.19708 18.6596 3.41265 16.8783C1.62821 15.0971 0.625732 12.6811 0.625732 10.162ZM37.1397 43.0951V119.489C21.4602 116.787 9.71128 105.874 9.43205 88.5067V28.6869H37.1397V43.0951ZM37.3975 19.6603C35.5171 19.6307 33.6874 19.0468 32.1386 17.982C30.5898 16.9172 29.3909 15.419 28.6928 13.6759C27.9946 11.9327 27.8283 10.0224 28.2148 8.18523C28.6014 6.34801 29.5234 4.66589 30.8651 3.35037C32.2067 2.03486 33.9081 1.14468 35.7552 0.791787C37.6022 0.438891 39.5126 0.639028 41.2461 1.36703C42.9795 2.09503 44.4587 3.3184 45.4975 4.8833C46.5363 6.4482 47.0884 8.28476 47.0844 10.162C47.0844 12.6811 46.0819 15.0971 44.2975 16.8783C42.5131 18.6596 40.0929 19.6603 37.5693 19.6603H37.3975ZM46.7622 120.153H45.2587V96.5685C45.6092 96.5906 45.9607 96.5906 46.3112 96.5685C48.5968 96.4564 50.7516 95.4711 52.3295 93.8167C53.9074 92.1623 54.7875 89.9656 54.7875 87.6813C54.7875 85.397 53.9074 83.2002 52.3295 81.5458C50.7516 79.8914 48.5968 78.9062 46.3112 78.7941C45.9607 78.772 45.6092 78.772 45.2587 78.7941V55.6165H46.7622C66.4154 55.6165 82.3741 67.3876 82.3741 87.9064C82.3741 108.425 66.4154 120.153 46.7622 120.153Z" fill="#F9D7C8"/>
</svg>
