<svg width="14" height="17" viewBox="0 0 14 17" fill="none" xmlns="http://www.w3.org/2000/svg">
<path d="M14 16.6741C14 16.7828 14 16.8914 14 17H8.86886C8.87502 16.9237 8.87502 16.847 8.86886 16.7707C8.85477 16.2691 8.64413 15.7936 8.28313 15.4486C7.92214 15.1035 7.44025 14.917 6.94319 14.93C6.44612 14.917 5.96424 15.1035 5.60324 15.4486C5.24224 15.7936 5.0316 16.2691 5.01751 16.7707C5.01135 16.847 5.01135 16.9237 5.01751 17H0C0 16.8914 0 16.7828 0 16.6741C0 12.3771 2.54763 8.89478 6.99701 8.89478C11.4464 8.89478 14 12.3771 14 16.6741Z" fill="white"/>
<path d="M7 6.05273C6.40665 6.05273 5.82664 5.87678 5.33329 5.54714C4.83994 5.21749 4.45543 4.74896 4.22836 4.20078C4.0013 3.6526 3.94189 3.0494 4.05765 2.46746C4.1734 1.88552 4.45912 1.35097 4.87868 0.931414C5.29824 0.511857 5.83279 0.226135 6.41473 0.11038C6.99667 -0.00537571 7.59987 0.0540342 8.14805 0.281097C8.69622 0.508159 9.16476 0.892677 9.4944 1.38602C9.82405 1.87937 9.99999 2.45939 9.99999 3.05273C10.0008 3.44692 9.92371 3.83737 9.77322 4.2017C9.62273 4.56603 9.40178 4.89705 9.12305 5.17579C8.84432 5.45452 8.51329 5.67546 8.14897 5.82595C7.78464 5.97644 7.39418 6.05351 7 6.05273Z" fill="white"/>
</svg>
