<svg width="13" height="17" viewBox="0 0 13 17" fill="none" xmlns="http://www.w3.org/2000/svg">
<path d="M6.04532 7.92018C7.81284 7.92018 9.24583 6.18054 9.24583 4.03458C9.24583 1.88856 8.77536 0.148926 6.04532 0.148926C3.31529 0.148926 2.84473 1.88856 2.84473 4.03458C2.84473 6.18054 4.27772 7.92018 6.04532 7.92018Z" fill="white"/>
<path d="M12.0832 13.6961C12.024 9.95776 11.5355 8.89254 7.79766 8.21826C7.79766 8.21826 7.2715 8.88841 6.04514 8.88841C4.81877 8.88841 4.29252 8.21826 4.29252 8.21826C0.59547 8.88519 0.0773067 9.93461 0.00917504 13.5746C0.00358825 13.8719 0.000999264 13.8875 0 13.853C0.000227105 13.9176 0.000499531 14.0372 0.000499531 14.2457C0.000499531 14.2457 0.890389 16.0389 6.04514 16.0389C11.1998 16.0389 12.0898 14.2457 12.0898 14.2457C12.0898 14.1118 12.0899 14.0186 12.09 13.9552C12.089 13.9766 12.087 13.9352 12.0832 13.6961Z" fill="white"/>
</svg>
