<svg width="211" height="159" viewBox="0 0 211 159" fill="none" xmlns="http://www.w3.org/2000/svg">
<path d="M199.105 159H162.754C159.599 159 156.573 157.747 154.343 155.516C152.112 153.285 150.859 150.259 150.859 147.104V74.1386C150.867 70.9861 152.123 67.965 154.352 65.7358C156.581 63.5066 159.602 62.2506 162.754 62.2422H199.105C202.257 62.2506 205.277 63.5066 207.506 65.7358C209.735 67.965 210.991 70.9861 210.999 74.1386V147.104C210.999 150.259 209.746 153.285 207.516 155.516C205.285 157.747 202.259 159 199.105 159ZM162.754 67.0008C160.861 67.0008 159.046 67.7528 157.707 69.0914C156.369 70.43 155.617 72.2456 155.617 74.1386V147.104C155.617 148.997 156.369 150.812 157.707 152.151C159.046 153.489 160.861 154.241 162.754 154.241H199.105C200.986 154.225 202.785 153.465 204.11 152.128C205.435 150.792 206.178 148.986 206.178 147.104V74.1386C206.178 72.2456 205.426 70.43 204.088 69.0914C202.749 67.7528 200.934 67.0008 199.041 67.0008H162.754Z" fill="#D3D2D1"/>
<path d="M96.7139 153.448C96.0856 153.44 95.4852 153.187 95.0408 152.742C94.5965 152.298 94.3432 151.698 94.335 151.069V136.793C94.335 136.162 94.5856 135.557 95.0317 135.111C95.4779 134.665 96.083 134.414 96.7139 134.414C97.3449 134.414 97.95 134.665 98.3961 135.111C98.8423 135.557 99.0929 136.162 99.0929 136.793V151.069C99.0847 151.698 98.8314 152.298 98.3871 152.742C97.9427 153.187 97.3423 153.44 96.7139 153.448Z" fill="#D3D2D1"/>
<path d="M142.168 156.621H50.7515C50.1206 156.621 49.5155 156.37 49.0693 155.924C48.6232 155.478 48.3726 154.872 48.3726 154.241C48.3726 153.61 48.6232 153.005 49.0693 152.559C49.5155 152.113 50.1206 151.862 50.7515 151.862H142.168C142.799 151.862 143.404 152.113 143.85 152.559C144.296 153.005 144.547 153.61 144.547 154.241C144.547 154.872 144.296 155.478 143.85 155.924C143.404 156.37 142.799 156.621 142.168 156.621Z" fill="#D3D2D1"/>
<path d="M150.859 125.658H15.0669C12.3328 125.658 9.71068 124.572 7.77738 122.638C5.84408 120.705 4.75797 118.082 4.75797 115.348V109.003H150.859V104.245H4.75797V15.0688C4.76633 12.337 5.85514 9.71936 7.78662 7.78763C9.71811 5.85589 12.3354 4.76695 15.0669 4.75858H177.821C180.555 4.75858 183.177 5.84484 185.111 7.77838C187.044 9.71193 188.13 12.3344 188.13 15.0688V62.0519H192.888V15.0688C192.888 11.0723 191.301 7.23951 188.475 4.41356C185.649 1.5876 181.817 0 177.821 0L15.0669 0C11.0709 0 7.23858 1.5876 4.41299 4.41356C1.5874 7.23951 0 11.0723 0 15.0688L0 115.348C0 119.344 1.5874 123.177 4.41299 126.003C7.23858 128.829 11.0709 130.417 15.0669 130.417H150.859V125.658Z" fill="#D3D2D1"/>
<path d="M188.003 146.31H173.856C173.225 146.31 172.619 146.06 172.173 145.613C171.727 145.167 171.477 144.562 171.477 143.931C171.477 143.3 171.727 142.695 172.173 142.249C172.619 141.802 173.225 141.552 173.856 141.552H188.003C188.633 141.552 189.239 141.802 189.685 142.249C190.131 142.695 190.382 143.3 190.382 143.931C190.382 144.562 190.131 145.167 189.685 145.613C189.239 146.06 188.633 146.31 188.003 146.31Z" fill="#D3D2D1"/>
<path d="M76.1275 102.5C76.1275 102.912 76.1275 103.356 76.1275 103.769H55.7317C55.7474 103.473 55.7474 103.176 55.7317 102.881C55.6069 100.95 54.7523 99.1399 53.3413 97.8171C51.9303 96.4942 50.0688 95.758 48.1348 95.758C46.2008 95.758 44.3393 96.4942 42.9283 97.8171C41.5173 99.1399 40.6627 100.95 40.5379 102.881C40.5222 103.176 40.5222 103.473 40.5379 103.769H20.7448C20.7448 103.356 20.7448 102.912 20.7448 102.5C20.7448 85.6862 30.7999 72.0767 48.3727 72.0767C65.9455 72.0767 76.1275 85.6545 76.1275 102.5Z" fill="#A3FFD3"/>
<path d="M198.217 129.846C198.217 130.1 198.217 130.385 198.217 130.639H185.53C185.545 130.449 185.545 130.258 185.53 130.068C185.53 128.806 185.028 127.595 184.136 126.703C183.244 125.811 182.033 125.309 180.772 125.309C179.51 125.309 178.299 125.811 177.407 126.703C176.515 127.595 176.014 128.806 176.014 130.068C176.014 130.258 176.014 130.449 176.014 130.639H163.675C163.659 130.375 163.659 130.11 163.675 129.846C163.675 119.314 170.019 110.812 180.962 110.812C191.905 110.812 198.217 119.314 198.217 129.846Z" fill="#A3FFD3"/>
<path d="M111.844 83.9097C107.375 83.9096 103.008 82.5841 99.2929 80.1008C95.5783 77.6174 92.6836 74.0879 90.9751 69.9587C89.2667 65.8296 88.8213 61.2864 89.6953 56.904C90.5693 52.5216 92.7234 48.497 95.8851 45.3393C99.0468 42.1817 103.074 40.033 107.457 39.165C111.84 38.2971 116.382 38.7489 120.508 40.4634C124.634 42.1778 128.159 45.0778 130.637 48.7965C133.115 52.5151 134.434 56.8853 134.428 61.354C134.428 64.3187 133.844 67.2543 132.708 69.993C131.573 72.7316 129.909 75.2196 127.811 77.3145C125.714 79.4094 123.224 81.0702 120.484 82.2018C117.744 83.3335 114.808 83.9138 111.844 83.9097Z" fill="#F9D7C8"/>
<path d="M180.803 99.8985C178.429 99.9048 176.106 99.206 174.129 97.8908C172.153 96.5755 170.611 94.703 169.7 92.5105C168.788 90.3181 168.548 87.9043 169.01 85.5752C169.471 83.2461 170.614 81.1065 172.293 79.4276C173.971 77.7486 176.111 76.6059 178.44 76.1442C180.768 75.6825 183.182 75.9226 185.374 76.8342C187.566 77.7457 189.438 79.2876 190.754 81.2645C192.069 83.2414 192.767 85.5642 192.761 87.9386C192.761 91.1106 191.501 94.1526 189.258 96.3955C187.016 98.6384 183.974 99.8985 180.803 99.8985Z" fill="#F9D7C8"/>
</svg>
